<svg width="1000" height="1000" viewBox="0 0 1000 1000" fill="none" xmlns="http://www.w3.org/2000/svg">
<circle cx="500" cy="500" r="500" fill="#ECF0F1"/>
<circle cx="500" cy="500" r="447.5" stroke="#158AD8" stroke-width="5"/>
<path fill-rule="evenodd" clip-rule="evenodd" d="M182.418 264.958C182.418 256.619 185.3 249.452 191.065 243.458C196.829 237.204 203.903 234.076 212.288 234.076C221.983 234.076 229.843 238.246 235.87 246.585V246.976L356.136 424.84L488.98 246.585C495.006 238.246 502.998 234.076 512.954 234.076C521.077 234.076 527.889 237.073 533.392 243.067C539.156 249.061 542.038 256.228 542.038 264.567V293.81H541.353V291.562H532.653V293.81H530.486V296.043H532.653V293.81H541.353V296.043H542.038V298.292H541.353V300.525H532.653V302.758H541.353V305.007H532.653V307.24H541.353V305.007H542.038V374.123H540.896V371.505H538.484V368.904H536.088V366.304H531.28V363.686H514.46V366.304H509.667V368.904H507.255V371.505H504.859V374.123L502.447 374.123V379.342H500.051V392.363H502.447V397.582H504.859V400.199H507.255V402.8H509.667V405.401H514.46V408.019H531.28V405.401H536.088V402.8H538.484V400.199H540.896V397.582H542.038V482.6H541.339V478.3H539.171V482.607H532.653V484.754H530.471V493.368H532.653V495.515H534.821V497.668H530.471V495.507H517.436V497.668H513.086V493.361H510.919V491.214H508.751V480.454H510.919V478.293H513.086V476.146H519.604V471.839H523.954V476.146H530.471V471.839H534.821V476.146H537.003V478.293H534.821V480.454H537.003V478.293H539.171V476.146H537.003V471.839H534.821V469.693H530.471V471.839H528.303V474H526.136V471.839H523.954V469.693H519.604V471.839H517.436V474H513.086V476.146H510.919V478.293H508.751V480.454H506.569V491.214H508.751V493.361H510.919V497.668H513.086V499.815H517.436V497.668H530.471V499.815H534.821V497.675H537.003V495.515H541.339V493.368H542.038V553.979H541.339V551.925H539.171V549.885H528.303V551.925H526.121V553.979H523.954V556.019H521.786V566.247H523.954V568.287H526.121V570.341H528.303V572.381H539.171V570.341H541.339V568.287H542.038V578.516H541.339V576.475H539.171V574.435H536.989V576.475H534.821V578.516H532.639V580.569H536.989V586.703H534.821V588.744H526.121V590.797H534.821V588.744H536.989V586.703H539.171V580.569H542.038V615.603H435.921V495.203L377.753 582.375C372.25 589.933 364.783 593.842 355.35 594.103C346.18 594.103 338.843 590.194 333.341 582.375L232.332 431.876L286.57 393.567L222.9 299.749V615.603H182.418V264.958ZM541.339 568.287H539.171V570.341H528.303V568.287H526.121V566.247H523.954V556.019H526.121V553.979H528.303V551.925H539.171V553.979H541.339V556.019H542.038V566.247H541.339V568.287ZM514.46 402.8V405.401H526.472V402.8H531.28V400.199H533.676V397.582H536.088V392.363H538.484V379.342H536.088V374.123H533.676V371.505H531.28V368.904H526.472V366.304H514.46V368.904H509.667V371.505H507.255V374.123H504.859V379.342H502.447V392.363H504.859V397.582H507.255V400.199H509.667V402.8H514.46ZM514.46 400.199V402.8H526.472V400.199H528.884V397.582H531.28V394.981H533.676V392.363H536.088V379.342H533.676V376.724H531.28V374.123H528.884V371.505H526.472V368.904H514.46V371.505H512.064V374.123L509.667 374.123V376.724H507.255V379.342H504.859V392.363H507.255V394.981H509.667V397.582H512.064V400.199H514.46ZM514.46 400.199V397.582H512.064V394.981H509.667V392.363H507.255V379.342H509.667V376.724H512.064V374.123H514.46V371.505H526.472V374.123L528.884 374.123V376.724H531.28V379.342H533.676V392.363H531.28V394.981H528.884V397.582H526.472V400.199H514.46ZM541.353 302.758V300.525H542.038V302.758H541.353ZM539.171 562.153H536.989V560.113H530.471V558.073H536.989V556.019H534.821V553.979H532.639V556.019H530.471V558.073H528.303V560.113H530.471V562.153H536.989V564.207H530.471V566.247H532.639V568.287H534.821V566.247H536.989V564.207H539.171V562.153ZM521.786 576.475H523.954V586.703H521.786V576.475ZM519.604 574.435H521.786V576.475H519.604V574.435ZM517.436 572.381H519.604V574.435H517.436V572.381ZM506.569 572.381V570.341H517.436V572.381H506.569ZM504.387 574.435V572.381H506.569V574.435H504.387ZM502.219 576.475V574.435H504.387V576.475H502.219ZM502.219 586.703H500.051V576.475H502.219V586.703ZM504.387 588.744H502.219V586.703H504.387V588.744ZM506.569 590.797H504.387V588.744H506.569V590.797ZM517.436 590.797V592.837H506.569V590.797H517.436ZM519.604 588.744V590.797H517.436V588.744H519.604ZM519.604 588.744H521.786V586.703H519.604V588.744ZM519.604 551.925H510.919V553.979H508.737V556.019H506.569V562.153H502.219V564.207H504.387V566.247H506.569V568.287H508.737V566.247H510.919V564.207H513.086V562.153H508.737V556.019H510.919V553.979H519.604V551.925ZM510.919 586.703H515.254V588.744H510.919V586.703ZM510.919 576.475V578.516H515.254V580.569H508.737V582.609H513.086V584.663H510.919V586.703H508.737V584.663H504.387V582.609H506.569V580.569H504.387V578.516H508.737V576.475H510.919ZM515.254 576.475H510.919V574.435H515.254V576.475ZM541.353 266.935H528.303V269.183H530.486V271.417H532.653V273.65H530.486V275.898H526.136V273.65H523.968V271.417H521.786V269.183H517.436V271.417H515.268V273.65H513.101V275.898H510.919V278.132H508.751V280.365H513.101V278.132H515.268V275.898H517.436V273.65H521.786V275.898H523.968V278.132H526.136V280.365H530.486V278.132H532.653V275.898H537.003V278.132H539.171V280.365H541.353V266.935ZM517.436 284.847H515.268V282.613H504.401V284.847H502.233V287.095H500.051V305.007H502.233V307.24H504.401V309.473H508.751V307.24H504.401V305.007H502.233V300.525H504.401V302.758H508.751V300.525H504.401V298.292H508.751V296.043H504.401V293.81H515.268V296.043H513.101V298.292H510.919V309.473H513.101V311.722H515.268V313.955H526.136V311.722H528.303V309.473H530.486V298.292H528.303V296.043H526.136V293.81H515.268V291.562H519.618V287.095H517.436V284.847ZM517.436 287.095V289.328H515.268V291.562H504.401V289.328H502.233V287.095H504.401V284.847H515.268V287.095H517.436ZM526.136 302.758V300.525H528.303V298.292H526.136V296.043H515.268V298.292H513.101V300.525H515.268V302.758H513.101V305.007H515.268V307.24H513.101V309.473H515.268V311.722H526.136V309.473H528.303V307.24H526.136V305.007H528.303V302.758H526.136ZM526.136 302.758V305.007H515.268V302.758H526.136ZM526.136 307.24V309.473H515.268V307.24H526.136ZM504.401 291.562V293.81H502.233V291.562H504.401ZM504.401 296.043H502.233V298.292H504.401V296.043ZM530.471 461.078H528.303V463.239H526.136V461.078H523.954V458.932H526.136V456.785H528.303V458.932H530.471V461.078ZM532.653 461.078H534.821V463.239H532.653V461.078ZM537.003 491.214H534.821V486.914H537.003V491.214ZM541.339 491.214H539.171V486.914H541.339V491.214ZM530.471 478.293H528.303V480.454H530.471V478.293ZM526.136 467.532H528.303V469.693H526.136V467.532ZM521.786 463.239H523.954V465.386H521.786V463.239ZM519.604 461.078H517.436V458.932H515.268V456.785H508.751V458.932H506.569V461.078H504.401V467.532H506.569V469.693H508.751V471.839H515.268V469.693H517.436V467.532H519.604V461.078ZM515.268 467.532H517.436V461.078H515.268V458.932H508.751V461.078H506.569V467.532H508.751V469.693H515.268V467.532ZM508.751 467.532V461.078H515.268V467.532H508.751ZM504.401 474H506.569V476.146H504.401V474ZM502.219 474V471.839H504.401V474H502.219ZM502.219 476.146H500.051V474H502.219V476.146ZM502.219 476.146V478.293H504.401V476.146H502.219ZM502.219 456.785H504.401V458.932H502.219V456.785ZM500.051 465.386H502.219V467.532H500.051V465.386ZM524.076 387.161H526.472V392.363H524.076V387.161ZM524.076 384.543V387.161H521.664V392.363H524.076V394.981H521.664V397.582H519.268V394.981H516.872V392.363H519.268V387.161H516.872V384.543H519.268V379.342H516.872V376.724H519.268V374.123H521.664V376.724H524.076V379.342H521.664V384.543H524.076ZM516.872 379.342V384.543H514.46V379.342H516.872ZM524.076 381.943V379.342H526.472V381.943H524.076ZM516.872 389.762V392.363H514.46V389.762H516.872Z" fill="#3498DB"/>
<path fill-rule="evenodd" clip-rule="evenodd" d="M819.512 615.603V575.339H624.182V549.93H689.292V549.539H690.072V532.958H653.735V530.644H651.567V523.732H653.735V528.345H690.072V519.118H655.917V493.769H658.085V516.819H690.072V493.769H658.085V491.47H690.072V451.935H689.27V449.753H690.072V445.417H685.298V443.235H690.072V441.067H677.368V438.9H690.072V436.718H673.396V438.9H667.446V432.368H673.396V434.55H690.072V432.368H677.368V430.2H690.072V428.032H681.34V425.85H690.072V421.501H689.27V419.333H690.072V379.409H688.071V376.986H685.795V374.562H683.519V372.123H681.229V369.7H676.677V372.115H665.268V369.692H676.677V367.277H681.229V364.838H683.519V362.415H685.795V357.553H688.071V362.415H690.072V357.545H688.071V345.398H690.072V290.542H688.512V286.324H690.072V275.786H688.512V271.568H690.072V234.076H584.024V615.603H819.512ZM686.345 269.466V271.568L688.512 271.568L688.512 269.466H686.345ZM684.163 267.364V269.466H686.345L686.345 267.364H684.163ZM679.813 265.248V267.364H684.163L684.163 265.248H679.813ZM668.96 265.248H671.127V252.608H677.645V265.248H679.813L679.813 252.608H681.995V250.506H666.778V252.608H668.96V265.248ZM664.61 267.364H668.96V265.248H664.61V267.364ZM662.428 269.466H664.61V267.364H662.428V269.466ZM660.26 271.568H662.428V269.466H660.26V271.568ZM658.092 275.786H660.26V271.568L658.092 271.568V275.786ZM658.092 286.324V275.786H655.91V286.324H658.092ZM660.26 286.324L658.092 286.324V290.542L660.26 290.542V292.644L662.428 292.644V294.76H686.345V292.644H688.512L688.512 290.542L686.345 290.542V292.644L662.428 292.644V290.542H660.26V286.324ZM660.26 286.324V282.106H662.428V280.004H668.96V282.106H673.295V284.222H679.813V282.106H681.995V280.004H686.345V282.106H688.512L688.512 286.324L686.345 286.324V288.426H684.163V290.542H664.61V288.426H662.428V286.324H660.26ZM685.795 340.536H688.071V345.398H685.795V340.536ZM683.519 338.112H685.795V340.536H683.519V338.112ZM681.229 335.689H683.519V338.112H681.229V335.689ZM676.677 333.25H681.229V335.689H676.677V333.25ZM665.268 333.25V330.827H676.677V333.25H665.268ZM660.701 335.689H665.268V333.25H660.701V335.689ZM658.425 338.112H660.701V335.689H658.425V338.112ZM656.134 340.536H658.425V338.112H656.134V340.536ZM653.858 345.398H656.134V340.536H653.858V345.398ZM653.858 357.545V345.398H651.567V357.545H653.858ZM656.134 362.407V357.545H653.858V362.407H656.134ZM658.425 364.83V362.407H656.134V364.83H658.425ZM660.701 367.269V369.692H665.268V367.269H660.701ZM660.701 367.269V364.83H658.425V367.269H660.701ZM690.072 367.269H688.071V369.692H690.072V367.269ZM687.29 417.165H689.27V419.333H687.29V417.165ZM687.29 417.165H683.319V412.815H687.29V417.165ZM679.347 423.683H681.34V425.85H679.347V423.683ZM677.368 421.501H679.347V423.683H677.368V421.501ZM675.376 419.333H677.368V421.501H675.376V419.333ZM675.376 419.333H669.425V421.501H663.474V414.983H669.425V417.165H675.376V419.333ZM675.376 428.032H677.368V430.2H675.376V428.032ZM675.376 428.032H659.503V430.2H653.552V423.683H659.503V425.85H675.376V428.032ZM675.376 443.235V441.067H677.368V443.235H675.376ZM675.376 443.235V445.417H665.466V447.585H659.503V441.067H665.466V443.235H675.376ZM683.319 447.585V445.417H685.298V447.585H683.319ZM681.34 449.753V447.585H683.319V449.753H681.34ZM681.34 449.753V451.935H679.347V454.103H673.396V447.585H679.347V449.753H681.34ZM687.29 454.103V451.935H689.27V454.103H687.29ZM687.29 454.103V458.452H683.319V454.103H687.29ZM655.917 519.118V523.732H653.735V519.118H655.917ZM655.544 425.85V428.032H657.523V425.85H655.544ZM677.368 451.935H675.376V449.753H677.368V451.935ZM686.345 275.786H684.163V277.902H686.345V275.786ZM679.813 271.568H677.645V273.684H679.813V271.568ZM673.295 277.902H675.477V280.004H673.295V277.902ZM671.127 271.568H668.96V273.684H671.127V271.568ZM664.61 275.786H666.778V277.902H664.61V275.786ZM677.638 505.294H679.82V507.593H677.638V505.294ZM677.638 523.732H671.12V526.031H677.638V523.732ZM673.302 505.294H675.47V507.593H673.302V505.294ZM671.12 505.294H668.952V507.593H671.12V505.294ZM681.229 350.26H683.519V352.683H681.229V350.26ZM678.953 347.821H681.229V350.26H678.953V347.821ZM678.953 347.821V345.398H676.677V347.821H678.953ZM678.953 355.122V352.683H681.229V355.122H678.953ZM678.953 355.122H676.677V357.545H678.953V355.122ZM672.11 345.398H674.386V350.26H672.11V345.398ZM669.819 350.26H672.11V352.683H669.819V350.26ZM669.819 352.683V357.545H667.543V352.683H669.819ZM665.268 355.122H662.977V352.683H660.701V350.26H662.977V347.821H665.268V345.398H662.977V347.821H660.701V350.26H658.425V352.683H660.701V355.122H662.977V357.545H665.268V355.122Z" fill="#3498DB"/>
<path d="M347.693 422.236L217.849 228.733V228.278L217.568 227.886C210.73 218.35 201.71 213.5 190.607 213.5C181.029 213.5 172.911 217.12 166.343 224.296C159.789 231.168 156.5 239.419 156.5 248.97V634.679V636.179H158H202.191H203.691V634.679V292.152L269.634 390.065L211.618 431.357L210.433 432.201L211.239 433.411L321.501 598.96L321.511 598.974L321.52 598.988C327.791 607.967 336.248 612.529 346.776 612.529H346.797L346.818 612.528C357.579 612.229 366.165 607.701 372.447 599.007L372.465 598.983L372.481 598.957L433.228 507.221V634.679V636.179H434.728H550.568H552.068V634.679V248.54C552.068 238.99 548.779 230.739 542.226 223.867C535.94 216.972 528.105 213.5 518.819 213.5C507.449 213.5 498.282 218.335 491.436 227.877C491.433 227.88 491.431 227.883 491.429 227.886L347.693 422.236ZM844.322 590.389V588.889H842.822H629.375V563.939H699.524H701.024V563.509H701.882V562.009V215V213.5H700.382H583.684H582.184V215V634.679V636.179H583.684H842.822H844.322V634.679V590.389Z" stroke="#3498DB" stroke-width="3"/>
<path d="M159.526 784.293V672.607C159.526 669.951 160.439 667.669 162.266 665.759C164.093 663.767 166.336 662.771 168.993 662.771C172.066 662.771 174.557 664.099 176.467 666.756V666.88L214.586 723.532L256.69 666.756C258.102 664.597 260.053 663.269 262.545 662.771V662.647H334.048V675.347H273.507V709.711H323.958V743.453H273.507V771.468H334.048V784.293H239.873V746.068L221.437 773.709C219.693 776.117 217.326 777.362 214.336 777.445C211.43 777.445 209.105 776.2 207.361 773.709L175.346 725.773L192.537 713.571L172.357 683.689V784.293H159.526Z" fill="#3498DB"/>
<path d="M341.508 686.179C341.508 682.942 342.131 679.912 343.377 677.09C344.623 674.185 346.283 671.694 348.36 669.619C350.519 667.461 353.01 665.759 355.834 664.514C358.74 663.269 361.813 662.647 365.052 662.647H409.025V696.389L354.339 696.513V750.8H421.482V684.062C421.482 681.074 422.022 678.293 423.101 675.72C424.264 673.064 425.8 670.781 427.71 668.872C429.704 666.88 431.987 665.344 434.562 664.265C437.219 663.103 440.043 662.522 443.032 662.522H476.043C479.033 662.522 481.815 663.103 484.39 664.265C487.047 665.344 489.331 666.88 491.241 668.872C493.234 670.781 494.77 673.064 495.85 675.72C497.013 678.293 497.594 681.074 497.594 684.062V784.293H463.586V724.404H434.313L434.437 784.168L365.052 784.293C361.813 784.293 358.74 783.67 355.834 782.425C353.01 781.18 350.519 779.52 348.36 777.445C346.283 775.286 344.623 772.796 343.377 769.974C342.131 767.069 341.508 763.998 341.508 760.76V686.179Z" fill="#3498DB"/>
<path d="M566.372 662.647C569.445 662.647 572.351 663.228 575.092 664.39C577.832 665.552 580.199 667.171 582.192 669.246C584.268 671.238 585.888 673.604 587.05 676.343C588.213 678.999 588.794 681.863 588.794 684.934V712.575C588.794 715.729 588.213 718.676 587.05 721.415C585.888 724.071 584.268 726.437 582.192 728.512C580.199 730.504 577.832 732.082 575.092 733.244C572.351 734.406 569.445 734.987 566.372 734.987H549.555V722.162H566.372C569.112 722.162 571.396 721.249 573.223 719.423C575.133 717.514 576.088 715.231 576.088 712.575V684.934C576.088 682.278 575.133 680.037 573.223 678.21C571.313 676.301 569.029 675.347 566.372 675.347H520.032V683.938L541.582 683.689V784.293H507.201V662.647H566.372Z" fill="#3498DB"/>
<path d="M608.395 785C606.213 785 604.34 784.219 602.777 782.657C601.214 781.094 600.432 779.223 600.432 777.041C600.432 774.86 601.214 772.988 602.777 771.426C604.34 769.864 606.213 769.083 608.395 769.083C610.577 769.083 612.45 769.864 614.013 771.426C615.576 772.988 616.357 774.86 616.357 777.041C616.357 778.486 615.989 779.812 615.252 781.021C614.544 782.229 613.585 783.202 612.376 783.939C611.197 784.646 609.869 785 608.395 785Z" fill="#3498DB"/>
<path d="M679.849 683.564C679.849 680.576 680.389 677.795 681.468 675.222C682.631 672.649 684.167 670.408 686.077 668.499C688.07 666.507 690.354 664.971 692.929 663.892C695.503 662.73 698.285 662.149 701.275 662.149H734.41C737.4 662.149 740.182 662.73 742.756 663.892C745.414 664.971 747.698 666.507 749.608 668.499C751.601 670.408 753.137 672.649 754.217 675.222C755.379 677.795 755.961 680.576 755.961 683.564V783.919H721.953V724.154H692.555V763.126H679.849V683.564ZM632.014 784.293V662.149H665.897V763.126H665.648V763.251H644.845V771.468H707.254V784.293H632.014Z" fill="#3498DB"/>
<path d="M765.583 683.938C765.583 680.95 766.123 678.169 767.202 675.596C768.365 672.94 769.901 670.657 771.811 668.748C773.804 666.756 776.088 665.22 778.663 664.141C781.32 662.979 784.144 662.398 787.133 662.398H820.269C823.258 662.398 826.041 662.979 828.615 664.141C831.189 665.22 833.432 666.756 835.342 668.748C837.335 670.657 838.871 672.94 839.951 675.596C841.113 678.169 841.695 680.95 841.695 683.938V710.707C841.695 712.368 841.363 713.903 840.698 715.314C840.117 716.725 839.286 717.971 838.207 719.05C837.21 720.046 836.006 720.876 834.594 721.54C833.183 722.121 831.688 722.411 830.11 722.411H802.082V730.504H830.11C831.688 730.504 833.183 730.837 834.594 731.501C836.006 732.082 837.21 732.912 838.207 733.991C839.286 734.987 840.117 736.232 840.698 737.726C841.363 739.137 841.695 740.631 841.695 742.208V763.749C841.695 766.571 841.155 769.227 840.075 771.717C838.996 774.207 837.542 776.407 835.715 778.316C833.888 780.142 831.688 781.595 829.113 782.674C826.622 783.753 823.964 784.293 821.141 784.293H794.981C793.403 784.293 791.867 784.002 790.372 783.421C788.96 782.757 787.673 781.927 786.51 780.931C785.431 779.852 784.559 778.607 783.894 777.196C783.23 775.785 782.898 774.249 782.898 772.589L783.147 730.754H789.251V722.162H783.147V676.218C781.735 676.882 780.573 677.92 779.659 679.331C778.829 680.742 778.413 682.278 778.413 683.938V784.293H765.583V683.938Z" fill="#3498DB"/>
</svg>
