<svg width="904" height="556" viewBox="0 0 904 556" fill="none" xmlns="http://www.w3.org/2000/svg">
<path fill-rule="evenodd" clip-rule="evenodd" d="M35 68.4713C35 57.5424 38.7772 48.1503 46.3316 40.2951C53.886 32.0984 63.1573 28 74.1456 28C86.8507 28 97.1522 33.4645 105.05 44.3934V44.9058L262.662 278L436.757 44.3934C444.655 33.4645 455.128 28 468.176 28C478.821 28 487.749 31.9276 494.96 39.7828C502.515 47.638 506.292 57.0301 506.292 67.959V106.282H505.394V103.336H493.993V106.282H491.152V109.209H493.993V106.282H505.394V109.209H506.292V112.156H505.394V115.083H493.993V118.01H505.394V120.956H493.993V123.883H505.394V120.956H506.292V211.535H504.796V208.104H501.635V204.696H498.495V201.287H492.193V197.857H470.15V201.287H463.87V204.696H460.709V208.104H457.568V211.535H454.408V218.374H451.267V235.439H454.408V242.278H457.568V245.709H460.709V249.117H463.87V252.525H470.15V255.956H492.193V252.525H498.495V249.117H501.635V245.709H504.796V242.278H506.292V353.697H505.376V348.061H502.535V353.706H493.993V356.519H491.134V367.808H493.993V370.622H496.834V373.444H491.134V370.612H474.051V373.444H468.35V367.799H465.509V364.986H462.668V350.884H465.509V348.052H468.35V345.239H476.892V339.594H482.592V345.239H491.134V339.594H496.834V345.239H499.694V348.052H496.834V350.884H499.694V348.052H502.535V345.239H499.694V339.594H496.834V336.781H491.134V339.594H488.293V342.426H485.452V339.594H482.592V336.781H476.892V339.594H474.051V342.426H468.35V345.239H465.509V348.052H462.668V350.884H459.809V364.986H462.668V367.799H465.509V373.444H468.35V376.257H474.051V373.444H491.134V376.257H496.834V373.453H499.694V370.622H505.376V367.808H506.292V447.241H505.376V444.549H502.535V441.876H488.293V444.549H485.433V447.241H482.592V449.915H479.751V463.319H482.592V465.992H485.433V468.684H488.293V471.358H502.535V468.684H505.376V465.992H506.292V479.397H505.376V476.723H502.535V474.049H499.675V476.723H496.834V479.397H493.974V482.088H499.675V490.127H496.834V492.801H485.433V495.492H496.834V492.801H499.675V490.127H502.535V482.088H506.292V528H367.222V370.213L290.991 484.455C283.78 494.359 273.994 499.482 261.632 499.824C249.614 499.824 239.999 494.701 232.788 484.455L100.414 287.221L171.494 237.016L88.0525 114.066V528H35V68.4713ZM505.376 465.992H502.535V468.684H488.293V465.992H485.433V463.319H482.592V449.915H485.433V447.241H488.293V444.549H502.535V447.241H505.376V449.915H506.292V463.319H505.376V465.992ZM470.15 249.117V252.525H485.892V249.117H492.193V245.709H495.334V242.278H498.495V235.439H501.635V218.374H498.495V211.535H495.334V208.104H492.193V204.696H485.892V201.287H470.15V204.696H463.87V208.104H460.709V211.535H457.568V218.374H454.408V235.439H457.568V242.278H460.709V245.709H463.87V249.117H470.15ZM470.15 245.709V249.117H485.892V245.709H489.053V242.278H492.193V238.869H495.334V235.439H498.495V218.374H495.334V214.943H492.193V211.535H489.053V208.104H485.892V204.696H470.15V208.104H467.01V211.535H463.87V214.943H460.709V218.374H457.568V235.439H460.709V238.869H463.87V242.278H467.01V245.709H470.15ZM470.15 245.709V242.278H467.01V238.869H463.87V235.439H460.709V218.374H463.87V214.943H467.01V211.535H470.15V208.104H485.892V211.535H489.053V214.943H492.193V218.374H495.334V235.439H492.193V238.869H489.053V242.278H485.892V245.709H470.15ZM505.394 118.01V115.083H506.292V118.01H505.394ZM502.535 457.954H499.675V455.28H491.134V452.606H499.675V449.915H496.834V447.241H493.974V449.915H491.134V452.606H488.293V455.28H491.134V457.954H499.675V460.645H491.134V463.319H493.974V465.992H496.834V463.319H499.675V460.645H502.535V457.954ZM479.751 476.723H482.592V490.127H479.751V476.723ZM476.892 474.049H479.751V476.723H476.892V474.049ZM474.051 471.358H476.892V474.049H474.051V471.358ZM459.809 471.358V468.684H474.051V471.358H459.809ZM456.949 474.049V471.358H459.809V474.049H456.949ZM454.108 476.723V474.049H456.949V476.723H454.108ZM454.108 490.127H451.267V476.723H454.108V490.127ZM456.949 492.801H454.108V490.127H456.949V492.801ZM459.809 495.492H456.949V492.801H459.809V495.492ZM474.051 495.492V498.166H459.809V495.492H474.051ZM476.892 492.801V495.492H474.051V492.801H476.892ZM476.892 492.801H479.751V490.127H476.892V492.801ZM476.892 444.549H465.509V447.241H462.65V449.915H459.809V457.954H454.108V460.645H456.949V463.319H459.809V465.992H462.65V463.319H465.509V460.645H468.35V457.954H462.65L462.65 449.915H465.509V447.241H476.892V444.549ZM471.191 490.127V492.801H465.509V490.127H471.191ZM465.509 476.723V479.397H471.191V482.088H462.65V484.762H468.35V487.453H465.509V490.127H462.65V487.453H456.949V484.762H459.809V482.088H456.949V479.397H462.65V476.723H465.509ZM465.509 476.723V474.049H471.191V476.723H465.509ZM505.394 88.6626V71.0621H488.293V74.0084H491.152V76.9354H493.993V79.8624H491.152V82.8086H485.452V79.8624H482.611V76.9354H479.751V74.0084H474.051V76.9354H471.21V79.8624H468.369V82.8086H465.509V85.7356H462.668V88.6626H468.369V85.7356H471.21V82.8086H474.051V79.8624H479.751V82.8086H482.611V85.7356H485.452V88.6626H491.152V85.7356H493.993V82.8086H499.694V85.7356H502.534V88.6626H505.394ZM474.051 94.5359H471.21V91.6089H456.968V94.5359H454.127V97.4821H451.267V120.956H454.127V123.883H456.968V126.81H462.668V123.883H456.968V120.956H454.127V115.083H456.968V118.01H462.668V115.083H456.968V112.156H462.668V109.209H456.968V106.282H471.21V109.209H468.369V112.156H465.509V126.81H468.369V129.756H471.21V132.683H485.452V129.756H488.293V126.81H491.152V112.156H488.293V109.209H485.452V106.282H471.21V103.336H476.91V97.4821H474.051V94.5359ZM474.051 97.4821V100.409H471.21V103.336H456.968V100.409H454.127V97.4821H456.968V94.5359H471.21V97.4821H474.051ZM485.452 118.01V115.083H488.293V112.156H485.452V109.209H471.21V112.156H468.369V115.083H471.21V118.01H468.369V120.956H471.21V123.883H468.369V126.81H471.21V129.756H485.452V126.81H488.293V123.883H485.452V120.956H488.293V118.01H485.452ZM485.452 118.01V120.956H471.21V118.01H485.452ZM485.452 123.883V126.81H471.21V123.883H485.452ZM456.968 103.336V106.282H454.127V103.336H456.968ZM456.968 109.209H454.127V112.156H456.968V109.209ZM491.134 325.492H488.293V328.324H485.452V325.492H482.592V322.679H485.452V319.866H488.293V322.679H491.134V325.492ZM493.993 325.492H496.834V328.324H493.993V325.492ZM499.694 364.986H496.834V359.351H499.694V364.986ZM505.376 364.986H502.535V359.351H505.376V364.986ZM491.134 348.052H488.293V350.884H491.134V348.052ZM485.452 333.95H488.293V336.781H485.452V333.95ZM479.751 328.324H482.592V331.137H479.751V328.324ZM476.892 325.492H474.051V322.679H471.21V319.866H462.668V322.679H459.809V325.492H456.968V333.95H459.809V336.781H462.668V339.594H471.21V336.781H474.051V333.95H476.892V325.492ZM471.21 333.95H474.051V325.492H471.21V322.679H462.668V325.492H459.809V333.95H462.668V336.781H471.21V333.95ZM462.668 333.95V325.492H471.21V333.95H462.668ZM456.968 342.426H459.809V345.239H456.968V342.426ZM454.108 342.426V339.594H456.968V342.426H454.108ZM454.108 345.239H451.267V342.426H454.108V345.239ZM454.108 345.239V348.052H456.968V345.239H454.108ZM454.108 319.866H456.968V322.679H454.108V319.866ZM451.267 331.137H454.108V333.95H451.267V331.137ZM482.752 228.622H485.892V235.439H482.752V228.622ZM482.752 225.191V228.622H479.591V235.439H482.752V238.869H479.591V242.278H476.451V238.869H473.311V235.439H476.451V228.622H473.311V225.191H476.451V218.374H473.311V214.943H476.451V211.535H479.591V214.943H482.752V218.374H479.591V225.191H482.752ZM473.311 218.374V225.191H470.15V218.374H473.311ZM482.752 221.783V218.374H485.892V221.783H482.752ZM473.311 232.03V235.439H470.15V232.03H473.311Z" fill="#8D3126"/>
<path fill-rule="evenodd" clip-rule="evenodd" d="M869.928 528V475.234H613.943V441.934H699.271V441.422H700.293V419.692H652.674V416.659H649.833V407.601H652.674V413.646H700.293V401.555H655.533V368.334H658.374V398.542H700.293V368.334H658.374V365.321H700.293V313.509H699.242V310.65H700.293V304.968H694.037V302.108H700.293V299.267H683.645V296.426H700.293V293.567H678.44V296.426H670.641V287.866H678.44V290.726H700.293V287.866H683.645V285.025H700.293V282.184H688.85V279.325H700.293V273.624H699.242V270.783H700.293V218.461H697.672V215.286H694.689V212.11H691.707V208.914H688.704V205.738H682.739V208.903H667.787V205.728H682.739V202.563H688.704V199.366H691.707V196.191H694.689V189.819H697.672V196.191H700.293V189.808H697.672V173.889H700.293V102H698.25V96.4718H700.293V82.6614H698.25V77.1337H700.293V28H561.315V528H869.928ZM695.409 74.3789V77.1337H698.25L698.25 74.3789H695.409ZM692.549 71.624V74.3789H695.409L695.409 71.624H692.549ZM686.849 68.8511V71.624H692.549V68.8511H686.849ZM672.625 68.8511H675.466V52.2859H684.008V68.8511H686.849V52.2859H689.708V49.5311H669.766V52.2859H672.625V68.8511ZM666.925 71.624H672.625V68.8511H666.925V71.624ZM664.065 74.3789H666.925V71.624H664.065V74.3789ZM661.224 77.1337H664.065V74.3789H661.224V77.1337ZM658.383 82.6614H661.224V77.1337H658.383V82.6614ZM658.383 96.4718V82.6614H655.524V96.4718H658.383ZM661.224 96.4718H658.383V102H661.224V104.754H664.065V107.527H695.409V104.754H698.25L698.25 102H695.409V104.754H664.065V102H661.224V96.4718ZM661.224 96.4718V90.944H664.065V88.1892H672.625V90.944H678.307V93.717H686.849V90.944H689.708V88.1892H695.409V90.944H698.25L698.25 96.4718H695.409V99.2266H692.549V102H666.925V99.2266H664.065V96.4718H661.224ZM694.689 167.517H697.672V173.889H694.689V167.517ZM691.707 164.342H694.689V167.517H691.707V164.342ZM688.704 161.166H691.707V164.342H688.704V161.166ZM682.739 157.97H688.704V161.166H682.739V157.97ZM667.787 157.97V154.794H682.739V157.97H667.787ZM661.802 161.166H667.787V157.97H661.802V161.166ZM658.82 164.342H661.802V161.166H658.82V164.342ZM655.818 167.517H658.82V164.342H655.818V167.517ZM652.835 173.889H655.818V167.517H652.835V173.889ZM652.835 189.808V173.889H649.833V189.808H652.835ZM655.818 196.18V189.808H652.835V196.18H655.818ZM658.82 199.356V196.18H655.818V199.356H658.82ZM661.802 202.552V205.728H667.787V202.552H661.802ZM661.802 202.552V199.356H658.82V202.552H661.802ZM700.293 202.552H697.672V205.728H700.293V202.552ZM696.648 267.942H699.242V270.783H696.648V267.942ZM696.648 267.942H691.443V262.242H696.648V267.942ZM686.239 276.484H688.85V279.325H686.239V276.484ZM683.645 273.624H686.239V276.484H683.645V273.624ZM681.034 270.783H683.645V273.624H681.034V270.783ZM681.034 270.783H673.235V273.624H665.436V265.083H673.235V267.942H681.034V270.783ZM681.034 282.184H683.645V285.025H681.034V282.184ZM681.034 282.184H660.232V285.025H652.433V276.484H660.232V279.325H681.034V282.184ZM681.034 302.108V299.267H683.645V302.108H681.034ZM681.034 302.108V304.968H668.047V307.809H660.232V299.267H668.047V302.108H681.034ZM691.443 307.809V304.968H694.037V307.809H691.443ZM688.85 310.65V307.809H691.443V310.65H688.85ZM688.85 310.65V313.509H686.239V316.35H678.44V307.809H686.239V310.65H688.85ZM696.648 316.35V313.509H699.242V316.35H696.648ZM696.648 316.35V322.051H691.443V316.35H696.648ZM655.533 401.555V407.601H652.674V401.555H655.533ZM655.044 279.325V282.184H657.638V279.325H655.044ZM683.645 313.509H681.034V310.65H683.645V313.509ZM695.409 82.6614H692.549V85.4344H695.409V82.6614ZM686.849 77.1337H684.008V79.9066H686.849V77.1337ZM678.307 85.4344H681.167V88.1892H678.307V85.4344ZM675.466 77.1337H672.625V79.9066H675.466V77.1337ZM666.925 82.6614H669.766V85.4344H666.925V82.6614ZM683.998 383.438H686.858V386.451H683.998V383.438ZM683.998 407.601H675.457V410.614H683.998V407.601ZM678.317 383.438H681.158V386.451H678.317V383.438ZM675.457 383.438H672.616V386.451H675.457V383.438ZM688.704 180.261H691.707V183.437H688.704V180.261ZM685.722 177.065H688.704V180.261H685.722V177.065ZM685.722 177.065V173.889H682.739V177.065H685.722ZM685.722 186.633V183.437H688.704V186.633H685.722ZM685.722 186.633H682.739V189.808H685.722V186.633ZM676.754 173.889H679.737V180.261H676.754V173.889ZM673.752 180.261H676.754V183.437H673.752V180.261ZM673.752 183.437V189.808H670.77V183.437H673.752ZM667.787 186.633H664.785V183.437H661.802V180.261H664.785V177.065H667.787V173.889H664.785V177.065H661.802V180.261H658.82V183.437H661.802V186.633H664.785V189.808H667.787V186.633Z" fill="#8D3126"/>
<path d="M80.9677 21.0328V20.5505L80.6867 20.1586C71.8056 7.77466 60.1212 1.5 45.732 1.5C33.3123 1.5 22.7964 6.18783 14.2736 15.5005C5.76623 24.42 1.5 35.1191 1.5 47.5185V553V554.5H3H60.9131H62.4131V553V102.585L149.939 232.544L73.5376 286.921L72.3528 287.765L73.1589 288.975L217.66 505.932L217.67 505.946L217.679 505.959C225.815 517.609 236.759 523.506 250.396 523.506H250.416L250.437 523.506C264.396 523.117 275.514 517.254 283.66 505.979L283.678 505.954L283.695 505.929L364.159 384.416V553V554.5H365.659H517.47H518.97V553V46.9549C518.97 34.5558 514.704 23.8569 506.197 14.9376C498.045 5.99581 487.902 1.5 475.863 1.5C461.117 1.5 449.242 7.75879 440.352 20.1496C440.35 20.1526 440.348 20.1556 440.346 20.1586L251.58 275.397L80.9677 21.1397V21.0328ZM901.977 494.957V493.457H900.477H620.283V459.828H712.681H714.181V459.264H715.305V457.764V3V1.5H713.805H560.87H559.37V3V553V554.5H560.87H900.477H901.977V553V494.957Z" stroke="#8D3126" stroke-width="3"/>
</svg>
