<svg width="1000" height="1000" viewBox="0 0 1000 1000" fill="none" xmlns="http://www.w3.org/2000/svg">
<rect width="1000" height="1000" fill="#F5EDD8"/>
<path fill-rule="evenodd" clip-rule="evenodd" d="M137.845 231.97C137.845 222.46 141.131 214.288 147.705 207.452C154.278 200.32 162.346 196.754 171.907 196.754C182.962 196.754 191.926 201.509 198.798 211.019V211.464L335.944 414.291L487.432 211.019C494.305 201.509 503.418 196.754 514.772 196.754C524.035 196.754 531.803 200.171 538.078 207.007C544.651 213.842 547.938 222.014 547.938 231.524V264.871H547.156V262.307H537.236V264.871H534.764V267.418H537.236V264.871H547.156V267.418H547.938V269.981H547.156V272.528H537.236V275.075H547.156V277.639H537.236V280.186H547.156V277.639H547.938V356.456H546.635V353.471H543.885V350.505H541.152V347.539H535.67V344.554H516.489V347.539H511.024V350.505H508.273V353.471H505.541V356.456H502.79V362.407H500.058V377.256H502.79V383.207H505.541V386.192H508.273V389.158H511.024V392.124H516.489V395.109H535.67V392.124H541.152V389.158H543.885V386.192H546.635V383.207H547.938V480.158H547.14V475.254H544.668V480.166H537.236V482.614H534.747V492.437H537.236V494.885H539.708V497.341H534.747V494.877H519.883V497.341H514.923V492.429H512.451V489.981H509.978V477.71H512.451V475.246H514.923V472.799H522.355V467.887H527.315V472.799H534.747V467.887H539.708V472.799H542.196V475.246H539.708V477.71H542.196V475.246H544.668V472.799H542.196V467.887H539.708V465.439H534.747V467.887H532.275V470.351H529.803V467.887H527.315V465.439H522.355V467.887H519.883V470.351H514.923V472.799H512.451V475.246H509.978V477.71H507.49V489.981H509.978V492.429H512.451V497.341H514.923V499.789H519.883V497.341H534.747V499.789H539.708V497.349H542.196V494.885H547.14V492.437H547.938V561.555H547.14V559.213H544.668V556.886H532.275V559.213H529.787V561.555H527.315V563.881H524.843V575.545H527.315V577.872H529.787V580.213H532.275V582.54H544.668V580.213H547.14V577.872H547.938V589.535H547.14V587.209H544.668V584.882H542.18V587.209H539.708V589.535H537.219V591.877H542.18V598.872H539.708V601.199H529.787V603.541H539.708V601.199H542.18V598.872H544.668V591.877H547.938V631.828H426.927V494.53L360.595 593.937C354.32 602.555 345.805 607.013 335.048 607.31C324.59 607.31 316.224 602.852 309.949 593.937L194.765 422.315L256.615 378.629L184.008 271.644V631.828H137.845V231.97ZM547.14 577.872H544.668V580.213H532.275V577.872H529.787V575.545H527.315V563.881H529.787V561.555H532.275V559.213H544.668V561.555H547.14V563.881H547.938V575.545H547.14V577.872ZM516.489 389.158V392.124H530.187V389.158H535.67V386.192H538.402V383.207H541.152V377.256H543.885V362.407H541.152V356.456H538.402V353.471H535.67V350.505H530.187V347.539H516.489V350.505H511.024V353.471H508.273V356.456H505.541V362.407H502.79V377.256H505.541V383.207H508.273V386.192H511.024V389.158H516.489ZM516.489 386.192V389.158H530.187V386.192H532.937V383.207H535.67V380.241H538.402V377.256H541.152V362.407H538.402V359.422H535.67V356.456H532.937V353.471H530.187V350.505H516.489V353.471H513.756V356.456H511.024V359.422H508.273V362.407H505.541V377.256H508.273V380.241H511.024V383.207H513.756V386.192H516.489ZM516.489 386.192V383.207H513.756V380.241H511.024V377.256H508.273V362.407H511.024V359.422H513.756V356.456H516.489V353.471H530.187V356.456H532.937V359.422H535.67V362.407H538.402V377.256H535.67V380.241H532.937V383.207H530.187V386.192H516.489ZM547.156 275.075V272.528H547.938V275.075H547.156ZM544.668 570.876H542.18V568.55H534.747V566.223H542.18V563.881H539.708V561.555H537.219V563.881H534.747V566.223H532.275V568.55H534.747V570.876H542.18V573.218H534.747V575.545H537.219V577.872H539.708V575.545H542.18V573.218H544.668V570.876ZM524.843 587.209H527.315V598.872H524.843V587.209ZM522.355 584.882H524.843V587.209H522.355V584.882ZM519.883 582.54H522.355V584.882H519.883V582.54ZM507.49 582.54V580.213H519.883V582.54H507.49ZM505.002 584.882V582.54H507.49V584.882H505.002ZM502.53 587.209V584.882H505.002V587.209H502.53ZM502.53 598.872H500.058V587.209H502.53V598.872ZM505.002 601.199H502.53V598.872H505.002V601.199ZM507.49 603.541H505.002V601.199H507.49V603.541ZM519.883 603.541V605.867H507.49V603.541H519.883ZM522.355 601.199V603.541H519.883V601.199H522.355ZM522.355 601.199H524.843V598.872H522.355V601.199ZM522.355 559.213H512.451V561.555H509.962V563.881H507.49V570.876H502.53V573.218H505.002V575.545H507.49V577.872H509.962V575.545H512.451V573.218H514.923V570.876H509.962V563.881H512.451V561.555H522.355V559.213ZM517.395 598.872V601.199H512.451V598.872H517.395ZM512.451 587.209V589.535H517.395V591.877H509.962V594.204H514.923V596.546H512.451V598.872H509.962V596.546H505.002V594.204H507.49V591.877H505.002V589.535H509.962V587.209H512.451ZM512.451 587.209V584.882H517.395V587.209H512.451ZM547.156 234.224H532.275V236.788H534.764V239.335H537.236V241.882H534.764V244.445H529.803V241.882H527.331V239.335H524.843V236.788H519.883V239.335H517.411V241.882H514.939V244.445H512.451V246.992H509.979V249.539H514.939V246.992H517.411V244.445H519.883V241.882H524.843V244.445H527.331V246.992H529.803V249.539H534.764V246.992H537.236V244.445H542.196V246.992H544.668V249.539H547.156V234.224ZM519.883 254.65H517.411V252.103H505.018V254.65H502.546V257.213H500.058V277.639H502.546V280.186H505.018V282.733H509.979V280.186H505.018V277.639H502.546V272.528H505.018V275.075H509.979V272.528H505.018V269.981H509.979V267.418H505.018V264.871H517.411V267.418H514.939V269.981H512.451V282.733H514.939V285.297H517.411V287.843H529.803V285.297H532.275V282.733H534.764V269.981H532.275V267.418H529.803V264.871H517.411V262.307H522.371V257.213H519.883V254.65ZM519.883 257.213V259.76H517.411V262.307H505.018V259.76H502.546V257.213H505.018V254.65H517.411V257.213H519.883ZM529.803 275.075V272.528H532.275V269.981H529.803V267.418H517.411V269.981H514.939V272.528H517.411V275.075H514.939V277.639H517.411V280.186H514.939V282.733H517.411V285.297H529.803V282.733H532.275V280.186H529.803V277.639H532.275V275.075H529.803ZM529.803 275.075V277.639H517.411V275.075H529.803ZM529.803 280.186V282.733H517.411V280.186H529.803ZM505.018 262.307V264.871H502.546V262.307H505.018ZM505.018 267.418H502.546V269.981H505.018V267.418ZM534.747 455.616H532.275V458.08H529.803V455.616H527.315V453.168H529.803V450.72H532.275V453.168H534.747V455.616ZM537.236 455.616H539.708V458.08H537.236V455.616ZM542.196 489.981H539.708V485.078H542.196V489.981ZM547.14 489.981H544.668V485.078H547.14V489.981ZM534.747 475.246H532.275V477.71H534.747V475.246ZM529.803 462.975H532.275V465.439H529.803V462.975ZM524.843 458.08H527.315V460.527H524.843V458.08ZM522.355 455.616H519.883V453.168H517.411V450.72H509.978V453.168H507.49V455.616H505.018V462.975H507.49V465.439H509.978V467.887H517.411V465.439H519.883V462.975H522.355V455.616ZM517.411 462.975H519.883V455.616H517.411V453.168H509.978V455.616H507.49V462.975H509.978V465.439H517.411V462.975ZM509.978 462.975V455.616H517.411V462.975H509.978ZM505.018 470.351H507.49V472.799H505.018V470.351ZM502.53 470.351V467.887H505.018V470.351H502.53ZM502.53 472.799H500.058V470.351H502.53V472.799ZM502.53 472.799V475.246H505.018V472.799H502.53ZM502.53 450.72H505.018V453.168H502.53V450.72ZM500.058 460.527H502.53V462.975H500.058V460.527ZM527.454 371.324H530.187V377.256H527.454V371.324ZM527.454 368.339V371.324H524.704V377.256H527.454V380.241H524.704V383.207H521.971V380.241H519.239V377.256H521.971V371.324H519.239V368.339H521.971V362.407H519.239V359.422H521.971V356.456H524.704V359.422H527.454V362.407H524.704V368.339H527.454ZM519.239 362.407V368.339H516.489V362.407H519.239ZM527.454 365.373V362.407H530.187V365.373H527.454ZM519.239 374.29V377.256H516.489V374.29H519.239Z" fill="#8D3126"/>
<path fill-rule="evenodd" clip-rule="evenodd" d="M864.355 631.828V585.913H641.611V556.938H715.859V556.492H716.748V537.583H675.312V534.944H672.84V527.062H675.312V532.323H716.748V521.801H677.8V492.894H680.272V519.18H716.748V492.894H680.272V490.272H716.748V445.189H715.833V442.701H716.748V437.756H711.304V435.268H716.748V432.796H702.261V430.324H716.748V427.836H697.732V430.324H690.946V422.876H697.732V425.364H716.748V422.876H702.261V420.404H716.748V417.932H706.79V415.443H716.748V410.483H715.833V408.011H716.748V362.483H714.467V359.72H711.872V356.957H709.276V354.176H706.664V351.413H701.473V354.167H688.463V351.403H701.473V348.649H706.664V345.868H709.276V343.105H711.872V337.56H714.467V343.105H716.748V337.551H714.467V323.699H716.748V261.144H714.97V256.334H716.748V244.317H714.97V239.507H716.748V196.754H595.817V631.828H864.355ZM712.498 237.11V239.507L714.97 239.507V237.11H712.498ZM710.009 234.713V237.11H712.498L712.498 234.713H710.009ZM705.049 232.3V234.713H710.009L710.009 232.3H705.049ZM692.673 232.3H695.145V217.886H702.577V232.3L705.049 232.3L705.049 217.886H707.537V215.489H690.185V217.886H692.673V232.3ZM687.713 234.713H692.673L692.673 232.3L687.713 232.3V234.713ZM685.224 237.11H687.713V234.713H685.224V237.11ZM682.752 239.507H685.224V237.11H682.752V239.507ZM680.28 244.317H682.752V239.507L680.28 239.507V244.317ZM680.28 256.334V244.317L677.792 244.317V256.334H680.28ZM682.752 256.334L680.28 256.334V261.144L682.752 261.144V263.541L685.224 263.541V265.954H712.498V263.541H714.97V261.144L712.498 261.144V263.541L685.224 263.541V261.144H682.752V256.334ZM682.752 256.334V251.524H685.224V249.127H692.673V251.524H697.617V253.937H705.049V251.524H707.537V249.127H712.498V251.524H714.97L714.97 256.334L712.498 256.334V258.731H710.009V261.144H687.713V258.731H685.224V256.334H682.752ZM711.872 318.154H714.467V323.699H711.872V318.154ZM709.276 315.391H711.872V318.154H709.276V315.391ZM706.664 312.628H709.276V315.391H706.664V312.628ZM701.473 309.847H706.664V312.628H701.473V309.847ZM688.463 309.847V307.084H701.473V309.847H688.463ZM683.255 312.628H688.463V309.847H683.255V312.628ZM680.66 315.391H683.255V312.628H680.66V315.391ZM678.048 318.154H680.66V315.391H678.048V318.154ZM675.452 323.699H678.048V318.154H675.452V323.699ZM675.452 337.551V323.699H672.84V337.551H675.452ZM678.048 343.096V337.551H675.452V343.096H678.048ZM680.66 345.859V343.096H678.048V345.859H680.66ZM683.255 348.64V351.403H688.463V348.64H683.255ZM683.255 348.64V345.859H680.66V348.64H683.255ZM716.748 348.64H714.467V351.403H716.748V348.64ZM713.576 405.539H715.833V408.011H713.576V405.539ZM713.576 405.539H709.047V400.579H713.576V405.539ZM704.518 412.971H706.79V415.443H704.518V412.971ZM702.261 410.483H704.518V412.971H702.261V410.483ZM699.989 408.011H702.261V410.483H699.989V408.011ZM699.989 408.011H693.203V410.483H686.417V403.051H693.203V405.539H699.989V408.011ZM699.989 417.932H702.261V420.404H699.989V417.932ZM699.989 417.932H681.888V420.404H675.102V412.971H681.888V415.443H699.989V417.932ZM699.989 435.268V432.796H702.261V435.268H699.989ZM699.989 435.268V437.756H688.689V440.228H681.888V432.796H688.689V435.268H699.989ZM709.047 440.228V437.756H711.304V440.228H709.047ZM706.79 442.701V440.228H709.047V442.701H706.79ZM706.79 442.701V445.189H704.518V447.661H697.732V440.228H704.518V442.701H706.79ZM713.576 447.661V445.189H715.833V447.661H713.576ZM713.576 447.661V452.621H709.047V447.661H713.576ZM677.8 521.801V527.062H675.312V521.801H677.8ZM677.374 415.443V417.932H679.631V415.443H677.374ZM702.261 445.189H699.989V442.701H702.261V445.189ZM712.498 244.317H710.009V246.73H712.498V244.317ZM705.049 239.507H702.577V241.92H705.049V239.507ZM697.617 246.73H700.105V249.127H697.617V246.73ZM695.145 239.507H692.673V241.92H695.145V239.507ZM687.713 244.317H690.185V246.73H687.713V244.317ZM702.569 506.037H705.057V508.659H702.569V506.037ZM702.569 527.062H695.137V529.684H702.569V527.062ZM697.625 506.037H700.097V508.659H697.625V506.037ZM695.137 506.037H692.665V508.659H695.137V506.037ZM706.664 329.244H709.276V332.007H706.664V329.244ZM704.069 326.462H706.664V329.244H704.069V326.462ZM704.069 326.462V323.699H701.473V326.462H704.069ZM704.069 334.788V332.007H706.664V334.788H704.069ZM704.069 334.788H701.473V337.551H704.069V334.788ZM696.266 323.699H698.861V329.244H696.266V323.699ZM693.653 329.244H696.266V332.007H693.653V329.244ZM693.653 332.007V337.551H691.058V332.007H693.653ZM688.463 334.788H685.85V332.007H683.255V329.244H685.85V326.462H688.463V323.699H685.85V326.462H683.255V329.244H680.66V332.007H683.255V334.788H685.85V337.551H688.463V334.788Z" fill="#8D3126"/>
<path d="M161.893 653.581V262.291L237.591 374.688L171.265 421.895L170.08 422.738L170.886 423.948L296.624 612.733L296.633 612.747L296.643 612.76C303.757 622.946 313.338 628.112 325.271 628.112H325.291L325.312 628.111C337.519 627.771 347.249 622.64 354.374 612.78L354.392 612.755L354.409 612.73L424.067 507.535V653.581V655.081H425.567H557.665H559.165V653.581V213.247C559.165 202.409 555.435 193.052 547.999 185.255C540.869 177.435 531.991 173.5 521.46 173.5C508.565 173.5 498.174 178.978 490.404 189.808C490.401 189.811 490.399 189.814 490.397 189.817L326.309 411.687L178.038 190.725V190.691V190.209L177.757 189.817C169.996 178.994 159.771 173.5 147.183 173.5C136.321 173.5 127.119 177.602 119.667 185.744C112.231 193.542 108.5 202.899 108.5 213.738V653.581V655.081H110H160.393H161.893V653.581ZM892.437 603.075V601.575H890.937H647.322V572.702H727.527H729.027V572.212H730.005V570.712V175V173.5H728.505H595.429H593.929V175V653.581V655.081H595.429H890.937H892.437V653.581V603.075Z" stroke="#8D3126" stroke-width="3"/>
<path d="M111.74 824.193V696.833C111.74 693.804 112.782 691.201 114.865 689.024C116.949 686.752 119.506 685.616 122.536 685.616C126.04 685.616 128.881 687.131 131.059 690.16V690.302L174.528 754.905L222.542 690.16C224.151 687.699 226.377 686.184 229.218 685.616V685.474H310.756V699.957H241.719V739.144H299.25V777.622H241.719V809.569H310.756V824.193H203.364V780.604L182.341 812.125C180.352 814.87 177.653 816.289 174.244 816.384C170.929 816.384 168.277 814.964 166.289 812.125L129.781 757.46L149.384 743.546L126.372 709.47V824.193H111.74Z" fill="#8D3126"/>
<path d="M319.264 712.309C319.264 708.618 319.974 705.163 321.395 701.944C322.815 698.631 324.709 695.792 327.077 693.425C329.539 690.964 332.38 689.024 335.6 687.604C338.915 686.184 342.419 685.474 346.112 685.474H396.257V723.952L333.895 724.094V785.999H410.462V709.896C410.462 706.488 411.078 703.317 412.309 700.383C413.635 697.354 415.387 694.751 417.565 692.573C419.837 690.302 422.442 688.551 425.378 687.32C428.408 685.995 431.628 685.332 435.037 685.332H472.681C476.09 685.332 479.263 685.995 482.199 687.32C485.229 688.551 487.833 690.302 490.012 692.573C492.284 694.751 494.036 697.354 495.268 700.383C496.593 703.317 497.256 706.488 497.256 709.896V824.193H458.476V755.899H425.093L425.235 824.051L346.112 824.193C342.419 824.193 338.915 823.483 335.6 822.063C332.38 820.644 329.539 818.75 327.077 816.384C324.709 813.923 322.815 811.083 321.395 807.865C319.974 804.552 319.264 801.05 319.264 797.358V712.309Z" fill="#8D3126"/>
<path d="M575.687 685.474C579.191 685.474 582.506 686.137 585.631 687.462C588.756 688.787 591.455 690.633 593.728 692.999C596.096 695.271 597.942 697.969 599.268 701.093C600.594 704.122 601.257 707.387 601.257 710.889V742.41C601.257 746.007 600.594 749.367 599.268 752.491C597.942 755.52 596.096 758.218 593.728 760.584C591.455 762.856 588.756 764.654 585.631 765.98C582.506 767.305 579.191 767.967 575.687 767.967H556.51V753.343H575.687C578.812 753.343 581.417 752.302 583.5 750.219C585.678 748.042 586.767 745.439 586.767 742.41V710.889C586.767 707.86 585.678 705.305 583.5 703.222C581.322 701.045 578.718 699.957 575.687 699.957H522.844V709.754L547.419 709.47V824.193H508.212V685.474H575.687Z" fill="#8D3126"/>
<path d="M623.608 825C621.12 825 618.984 824.109 617.202 822.328C615.419 820.546 614.528 818.412 614.528 815.924C614.528 813.437 615.419 811.302 617.202 809.521C618.984 807.739 621.12 806.849 623.608 806.849C626.097 806.849 628.232 807.739 630.015 809.521C631.797 811.302 632.688 813.437 632.688 815.924C632.688 817.571 632.268 819.084 631.427 820.462C630.62 821.84 629.527 822.95 628.148 823.79C626.803 824.597 625.29 825 623.608 825Z" fill="#8D3126"/>
<path d="M705.091 709.328C705.091 705.92 705.706 702.749 706.938 699.815C708.263 696.88 710.015 694.325 712.193 692.147C714.466 689.876 717.071 688.125 720.006 686.894C722.942 685.569 726.115 684.906 729.524 684.906H767.31C770.719 684.906 773.892 685.569 776.828 686.894C779.858 688.125 782.462 689.876 784.641 692.147C786.913 694.325 788.665 696.88 789.896 699.815C791.222 702.749 791.885 705.92 791.885 709.328V823.767H753.105V755.615H719.58V800.056H705.091V709.328ZM650.543 824.193V684.906H689.181V800.056H688.897V800.198H665.174V809.569H736.342V824.193H650.543Z" fill="#8D3126"/>
<path d="M802.858 709.754C802.858 706.346 803.473 703.175 804.704 700.241C806.03 697.212 807.782 694.609 809.96 692.431C812.233 690.16 814.837 688.409 817.773 687.178C820.804 685.853 824.023 685.19 827.433 685.19H865.219C868.628 685.19 871.801 685.853 874.736 687.178C877.672 688.409 880.229 690.16 882.407 692.431C884.68 694.609 886.432 697.212 887.663 700.241C888.989 703.175 889.652 706.346 889.652 709.754V740.28C889.652 742.173 889.273 743.925 888.516 745.534C887.853 747.143 886.906 748.563 885.674 749.793C884.538 750.929 883.165 751.876 881.555 752.633C879.945 753.296 878.24 753.627 876.441 753.627H844.479V762.856H876.441C878.24 762.856 879.945 763.234 881.555 763.992C883.165 764.654 884.538 765.601 885.674 766.831C886.906 767.967 887.853 769.387 888.516 771.091C889.273 772.7 889.652 774.404 889.652 776.202V800.766C889.652 803.984 889.036 807.013 887.805 809.853C886.574 812.692 884.917 815.201 882.833 817.378C880.75 819.46 878.24 821.117 875.305 822.347C872.464 823.578 869.433 824.193 866.213 824.193H836.382C834.583 824.193 832.831 823.862 831.126 823.199C829.516 822.442 828.048 821.496 826.723 820.36C825.491 819.129 824.497 817.709 823.739 816.1C822.982 814.491 822.603 812.74 822.603 810.847L822.887 763.14H829.848V753.343H822.887V700.951C821.277 701.708 819.951 702.891 818.91 704.5C817.963 706.109 817.489 707.86 817.489 709.754V824.193H802.858V709.754Z" fill="#8D3126"/>
</svg>
