<svg version="1.1" xmlns="http://www.w3.org/2000/svg" viewBox="0 0 740.0000915527344 761.7554643419054" width="2220.000274658203" height="2285.2663930257163">
  <!-- svg-source:excalidraw -->
  
  <defs>
    <style class="style-fonts">
      @font-face {
        font-family: "Virgil";
        src: url("https://excalidraw.com/Virgil.woff2");
      }
      @font-face {
        font-family: "Cascadia";
        src: url("https://excalidraw.com/Cascadia.woff2");
      }
      @font-face {
        font-family: "Assistant";
        src: url("https://excalidraw.com/Assistant-Regular.woff2");
      }
    </style>
    
  </defs>
  <rect x="0" y="0" width="740.0000915527344" height="761.7554643419054" fill="#f8f9fa"></rect><g stroke-linecap="round" transform="translate(299.39396221249785 88.13336012098524) rotate(0 74 30)"><path d="M15 0 C58.94 -0.35, 107.4 -0.66, 133 0 M15 0 C60.93 0.19, 106.93 0.9, 133 0 M133 0 C141.99 -0.6, 147.44 4.3, 148 15 M133 0 C140.85 0.33, 145.99 5.09, 148 15 M148 15 C146.06 22.62, 148.76 33.73, 148 45 M148 15 C148.49 22.54, 147.39 30.59, 148 45 M148 45 C149.15 53.14, 144.93 58.67, 133 60 M148 45 C149.93 55.52, 141.46 62.21, 133 60 M133 60 C90.24 60.36, 49.05 61.28, 15 60 M133 60 C93.05 58.71, 52.35 59.85, 15 60 M15 60 C6.05 59.3, -1.49 56.49, 0 45 M15 60 C6.37 59.44, 1.8 54.29, 0 45 M0 45 C-1.42 35.4, 1.07 26.7, 0 15 M0 45 C-1.03 37, 0.47 27.28, 0 15 M0 15 C-1.82 6.1, 6.35 -1.38, 15 0 M0 15 C-0.12 5.65, 4.56 -0.63, 15 0" stroke="#1e1e1e" stroke-width="1" fill="none"></path></g><g transform="translate(305.00401622861114 93.13336012098524) rotate(0 68.38994598388672 25)"><text x="68.38994598388672" y="17.52" font-family="Virgil, Segoe UI Emoji" font-size="20px" fill="#1e1e1e" text-anchor="middle" style="white-space: pre;" direction="ltr" dominant-baseline="alphabetic">Buscar dados</text><text x="68.38994598388672" y="42.519999999999996" font-family="Virgil, Segoe UI Emoji" font-size="20px" fill="#1e1e1e" text-anchor="middle" style="white-space: pre;" direction="ltr" dominant-baseline="alphabetic">da web</text></g><g stroke-linecap="round" transform="translate(295.39396221249785 204.6442003556707) rotate(0 78 30)"><path d="M15 0 C44.93 2.71, 76.05 2.93, 141 0 M15 0 C63.13 -0.17, 112.13 -0.6, 141 0 M141 0 C149.51 0.06, 157.6 5.45, 156 15 M141 0 C150.77 0.95, 153.79 4.48, 156 15 M156 15 C157.56 24.58, 154.56 31.85, 156 45 M156 15 C155.72 24.99, 156.07 36.78, 156 45 M156 45 C157.67 56.86, 152.08 60.73, 141 60 M156 45 C154.87 55.79, 152.2 58.5, 141 60 M141 60 C105.07 58.92, 69.92 59.99, 15 60 M141 60 C112.66 59.42, 86.3 58.72, 15 60 M15 60 C3.15 59.97, -0.17 53.46, 0 45 M15 60 C5.55 59.07, 1.32 55.93, 0 45 M0 45 C-0.57 36.86, 0.2 32.89, 0 15 M0 45 C-0.98 33.92, 0.07 21.15, 0 15 M0 15 C0.64 5.14, 5.05 -0.42, 15 0 M0 15 C-0.54 5.92, 3.27 -0.82, 15 0" stroke="#1e1e1e" stroke-width="1" fill="none"></path></g><g transform="translate(302.94403392880645 209.6442003556707) rotate(0 70.4499282836914 25)"><text x="70.4499282836914" y="17.52" font-family="Virgil, Segoe UI Emoji" font-size="20px" fill="#1e1e1e" text-anchor="middle" style="white-space: pre;" direction="ltr" dominant-baseline="alphabetic">Pré-</text><text x="70.4499282836914" y="42.519999999999996" font-family="Virgil, Segoe UI Emoji" font-size="20px" fill="#1e1e1e" text-anchor="middle" style="white-space: pre;" direction="ltr" dominant-baseline="alphabetic">processamento</text></g><g stroke-linecap="round" transform="translate(306.89396221249785 513.2332407633463) rotate(0 66.5 30)"><path d="M15 0 C51.04 0.09, 92.42 -0.45, 118 0 M15 0 C49 -0.29, 81.08 -0.53, 118 0 M118 0 C126.28 -0.61, 133.77 3.2, 133 15 M118 0 C130.03 -1.72, 132.26 2.87, 133 15 M133 15 C134.99 22.67, 131.35 29.83, 133 45 M133 15 C132.23 21.13, 132.45 27.5, 133 45 M133 45 C131.13 55.29, 126.25 60.07, 118 60 M133 45 C132.7 53.92, 127.3 57.93, 118 60 M118 60 C91.08 59.87, 64.46 62.04, 15 60 M118 60 C85.52 60.03, 52.85 60.3, 15 60 M15 60 C6.68 60.46, -1.34 56.92, 0 45 M15 60 C6.46 60.96, 0.16 55.14, 0 45 M0 45 C0.55 36.59, -1.32 26.76, 0 15 M0 45 C0.57 37.67, -0.7 31.79, 0 15 M0 15 C1.19 4.51, 6.57 -0.62, 15 0 M0 15 C-0.45 3.96, 3.74 -1.78, 15 0" stroke="#1e1e1e" stroke-width="1" fill="none"></path></g><g transform="translate(313.39400798886504 518.2332407633463) rotate(0 59.99995422363281 25)"><text x="59.99995422363281" y="17.52" font-family="Virgil, Segoe UI Emoji" font-size="20px" fill="#1e1e1e" text-anchor="middle" style="white-space: pre;" direction="ltr" dominant-baseline="alphabetic">Aplicar </text><text x="59.99995422363281" y="42.519999999999996" font-family="Virgil, Segoe UI Emoji" font-size="20px" fill="#1e1e1e" text-anchor="middle" style="white-space: pre;" direction="ltr" dominant-baseline="alphabetic">fórmula IDF</text></g><g stroke-linecap="round" transform="translate(313.89396221249785 617.6222042507596) rotate(0 59.5 30)"><path d="M15 0 C51.09 1.86, 84.16 0.73, 104 0 M15 0 C42.84 -0.39, 69.98 -1.32, 104 0 M104 0 C114.6 -1.35, 118.7 5.95, 119 15 M104 0 C115.21 -0.81, 117.29 6.72, 119 15 M119 15 C118.31 25.4, 118.02 35.48, 119 45 M119 15 C118.08 21.48, 119.44 27.83, 119 45 M119 45 C117.32 55.81, 115.32 58.17, 104 60 M119 45 C116.91 56.26, 115.55 58.42, 104 60 M104 60 C77.23 59.02, 51.92 58.14, 15 60 M104 60 C82.26 58.44, 60.53 58.87, 15 60 M15 60 C6.5 61.34, 1.04 56.24, 0 45 M15 60 C2.8 60.17, -1.39 54.05, 0 45 M0 45 C-0.99 36.08, 0.91 30.75, 0 15 M0 45 C-0.17 35.16, 0.78 25.39, 0 15 M0 15 C-1.63 4.96, 4.28 -0.98, 15 0 M0 15 C-0.29 2.75, 3.55 1.3, 15 0" stroke="#1e1e1e" stroke-width="1" fill="none"></path></g><g transform="translate(336.09398967831817 622.6222042507596) rotate(0 37.29997253417969 25)"><text x="37.29997253417969" y="17.52" font-family="Virgil, Segoe UI Emoji" font-size="20px" fill="#1e1e1e" text-anchor="middle" style="white-space: pre;" direction="ltr" dominant-baseline="alphabetic">Aplicar </text><text x="37.29997253417969" y="42.519999999999996" font-family="Virgil, Segoe UI Emoji" font-size="20px" fill="#1e1e1e" text-anchor="middle" style="white-space: pre;" direction="ltr" dominant-baseline="alphabetic">TF-IDF</text></g><g stroke-linecap="round" transform="translate(324.89396221249785 10) rotate(0 48.5 17.5)"><path d="M8.75 0 C27.18 1.22, 43.61 0.17, 88.25 0 M8.75 0 C38.34 1.25, 68.98 0.3, 88.25 0 M88.25 0 C95.55 -0.54, 97.41 4.34, 97 8.75 M88.25 0 C92.92 -1.54, 95.19 2.34, 97 8.75 M97 8.75 C97.23 16.21, 97.08 22.73, 97 26.25 M97 8.75 C96.7 13.4, 97.06 19.26, 97 26.25 M97 26.25 C95.6 31.58, 93.82 34.67, 88.25 35 M97 26.25 C96.23 33.88, 96.07 36.83, 88.25 35 M88.25 35 C57.11 35.33, 27.31 33.27, 8.75 35 M88.25 35 C59.57 33.99, 28.41 34.41, 8.75 35 M8.75 35 C1.16 36.52, -1.35 30.26, 0 26.25 M8.75 35 C3.93 34.43, -0.84 33.4, 0 26.25 M0 26.25 C0.34 21.5, -1.44 16.63, 0 8.75 M0 26.25 C0.67 19.38, -0.12 12.36, 0 8.75 M0 8.75 C0.13 1.92, 3.82 0.06, 8.75 0 M0 8.75 C-1.11 2.53, 4.87 -0.24, 8.75 0" stroke="#2f9e44" stroke-width="1" fill="none"></path></g><g transform="translate(333.6239960870096 15) rotate(0 39.76996612548828 12.5)"><text x="39.76996612548828" y="17.52" font-family="Virgil, Segoe UI Emoji" font-size="20px" fill="#2f9e44" text-anchor="middle" style="white-space: pre;" direction="ltr" dominant-baseline="alphabetic">Começar</text></g><g stroke-linecap="round" transform="translate(324.89396221249785 716.7554643419054) rotate(0 48.5 17.5)"><path d="M8.75 0 C34.62 -1.47, 62.77 -1.81, 88.25 0 M8.75 0 C40.22 0.48, 72.18 0.87, 88.25 0 M88.25 0 C92.13 0.55, 96.48 4, 97 8.75 M88.25 0 C93.09 0.05, 97.34 4.19, 97 8.75 M97 8.75 C98.01 12.73, 95.31 19.87, 97 26.25 M97 8.75 C96.44 13.85, 96.25 21.19, 97 26.25 M97 26.25 C95.5 31.37, 95.81 35.85, 88.25 35 M97 26.25 C98.25 32.65, 94.75 33.84, 88.25 35 M88.25 35 C67.31 36.08, 48.14 33.82, 8.75 35 M88.25 35 C65.69 36.07, 42.37 34.81, 8.75 35 M8.75 35 C1.69 33.55, -1.29 33.26, 0 26.25 M8.75 35 C3.03 35.07, -1.4 32.04, 0 26.25 M0 26.25 C1 21.15, 0.57 16.27, 0 8.75 M0 26.25 C-0.47 20.38, 0.27 12.94, 0 8.75 M0 8.75 C1.73 3.33, 1.49 -1.86, 8.75 0 M0 8.75 C-0.01 3.44, 3.79 -1.17, 8.75 0" stroke="#2f9e44" stroke-width="1" fill="none"></path></g><g transform="translate(359.13397533505645 721.7554643419054) rotate(0 14.259986877441406 12.5)"><text x="14.259986877441406" y="17.52" font-family="Virgil, Segoe UI Emoji" font-size="20px" fill="#2f9e44" text-anchor="middle" style="white-space: pre;" direction="ltr" dominant-baseline="alphabetic">Fim</text></g><g stroke-linecap="round" transform="translate(309.39396221249785 301.0333082411024) rotate(0 64 30)"><path d="M15 0 C42.87 -1.3, 68.85 2.15, 113 0 M15 0 C37.69 0.41, 61.95 1.64, 113 0 M113 0 C124.04 1.24, 126.09 5.15, 128 15 M113 0 C121.61 -0.95, 127.19 6.01, 128 15 M128 15 C128.91 28.46, 128.57 37.72, 128 45 M128 15 C128.55 26.26, 127.1 36.55, 128 45 M128 45 C127.28 54.02, 122.74 58.04, 113 60 M128 45 C126.55 56.3, 121.41 58.22, 113 60 M113 60 C75.6 60.29, 41.97 59.03, 15 60 M113 60 C90.36 59.28, 68.17 59.73, 15 60 M15 60 C4.17 60.09, -1.06 55.03, 0 45 M15 60 C5.03 57.7, -2.17 53.46, 0 45 M0 45 C-0.54 34.37, -0.9 20.95, 0 15 M0 45 C-0.4 34.97, 0.16 26.2, 0 15 M0 15 C1.86 4.44, 4.65 1.58, 15 0 M0 15 C-0.22 6.61, 3.25 1.04, 15 0" stroke="#1e1e1e" stroke-width="1" fill="none"></path></g><g transform="translate(318.6040070733377 306.0333082411024) rotate(0 54.789955139160156 25)"><text x="54.789955139160156" y="17.52" font-family="Virgil, Segoe UI Emoji" font-size="20px" fill="#1e1e1e" text-anchor="middle" style="white-space: pre;" direction="ltr" dominant-baseline="alphabetic">Aplicar </text><text x="54.789955139160156" y="42.519999999999996" font-family="Virgil, Segoe UI Emoji" font-size="20px" fill="#1e1e1e" text-anchor="middle" style="white-space: pre;" direction="ltr" dominant-baseline="alphabetic">fórmula TF</text></g><g stroke-linecap="round"><g transform="translate(371.1000671386719 49.14418509688166) rotate(0 -0.5025113875977922 17.332941577339078)"><path d="M0.3 0.52 C0.04 6.08, -1.05 28.21, -1.31 33.64 M-0.21 0.31 C-0.33 5.94, -0.35 28.84, -0.33 34.36" stroke="#1e1e1e" stroke-width="1" fill="none"></path></g><g transform="translate(371.1000671386719 49.14418509688166) rotate(0 -0.5025113875977922 17.332941577339078)"><path d="M-6.09 18.57 C-3.23 23.33, -1.94 29.02, -0.33 34.36 M-6.09 18.57 C-4.73 21.63, -3.33 25.36, -0.33 34.36" stroke="#1e1e1e" stroke-width="1" fill="none"></path></g><g transform="translate(371.1000671386719 49.14418509688166) rotate(0 -0.5025113875977922 17.332941577339078)"><path d="M5.41 18.56 C4.22 23.36, 1.46 29.05, -0.33 34.36 M5.41 18.56 C4.42 21.64, 3.47 25.36, -0.33 34.36" stroke="#1e1e1e" stroke-width="1" fill="none"></path></g></g><mask></mask><g stroke-linecap="round"><g transform="translate(371.9000549316406 156.3442201920965) rotate(0 0.08727401262973444 20.46263555065495)"><path d="M0.4 0.29 C0.41 6.95, -0.44 33.7, -0.42 40.45 M-0.06 -0.04 C0.16 6.65, 0.52 34.07, 0.6 40.96" stroke="#1e1e1e" stroke-width="1" fill="none"></path></g><g transform="translate(371.9000549316406 156.3442201920965) rotate(0 0.08727401262973444 20.46263555065495)"><path d="M-6.62 21.89 C-4.46 25.21, -4.07 31, 0.6 40.96 M-6.62 21.89 C-4.41 27.88, -2.96 33.41, 0.6 40.96" stroke="#1e1e1e" stroke-width="1" fill="none"></path></g><g transform="translate(371.9000549316406 156.3442201920965) rotate(0 0.08727401262973444 20.46263555065495)"><path d="M7.33 21.71 C6.48 25.12, 3.86 30.95, 0.6 40.96 M7.33 21.71 C5.48 27.7, 2.86 33.29, 0.6 40.96" stroke="#1e1e1e" stroke-width="1" fill="none"></path></g></g><mask></mask><g stroke-linecap="round" transform="translate(37.200103759765625 192.1442003556707) rotate(0 101 42.5)"><path d="M21.25 0 C81.55 -1.92, 145.85 0.84, 180.75 0 M21.25 0 C84.57 -0.71, 146.74 -1.39, 180.75 0 M180.75 0 C193.17 0.99, 200.22 5.42, 202 21.25 M180.75 0 C194.74 1.49, 201.09 8.41, 202 21.25 M202 21.25 C203.31 35.97, 203.97 49.12, 202 63.75 M202 21.25 C202.24 35.14, 202.55 46.76, 202 63.75 M202 63.75 C200.13 78.81, 195.69 86.18, 180.75 85 M202 63.75 C202.88 77.63, 192.93 84.6, 180.75 85 M180.75 85 C143.14 84.45, 109.11 86.08, 21.25 85 M180.75 85 C135.66 85.46, 93.03 85.87, 21.25 85 M21.25 85 C8.91 85.69, -0.85 77.7, 0 63.75 M21.25 85 C4.83 86.45, 2.16 76.5, 0 63.75 M0 63.75 C-0.78 48.94, 1.41 36.29, 0 21.25 M0 63.75 C0.36 54.46, -0.33 47.17, 0 21.25 M0 21.25 C-1.96 7.98, 6.82 -1.71, 21.25 0 M0 21.25 C-2.18 8.48, 5.8 0.89, 21.25 0" stroke="#1e1e1e" stroke-width="1" fill="none"></path></g><g transform="translate(43.37017059326172 197.1442003556707) rotate(0 94.8299331665039 37.5)"><text x="94.8299331665039" y="17.52" font-family="Virgil, Segoe UI Emoji" font-size="20px" fill="#1e1e1e" text-anchor="middle" style="white-space: pre;" direction="ltr" dominant-baseline="alphabetic">Contar o número </text><text x="94.8299331665039" y="42.519999999999996" font-family="Virgil, Segoe UI Emoji" font-size="20px" fill="#1e1e1e" text-anchor="middle" style="white-space: pre;" direction="ltr" dominant-baseline="alphabetic">total de palavras </text><text x="94.8299331665039" y="67.52" font-family="Virgil, Segoe UI Emoji" font-size="20px" fill="#1e1e1e" text-anchor="middle" style="white-space: pre;" direction="ltr" dominant-baseline="alphabetic">no documento</text></g><g stroke-linecap="round" transform="translate(10 391.3442201920965) rotate(0 103.5 55)"><path d="M27.5 0 C76.92 2.37, 126.15 2.12, 179.5 0 M27.5 0 C84.92 -0.97, 142.01 -0.36, 179.5 0 M179.5 0 C196.06 -1.66, 206.84 10.46, 207 27.5 M179.5 0 C196.92 1.33, 207.18 10.21, 207 27.5 M207 27.5 C209.09 41.31, 207.51 50.37, 207 82.5 M207 27.5 C208.11 45.61, 206.35 65.86, 207 82.5 M207 82.5 C207.78 102.01, 198.6 109.75, 179.5 110 M207 82.5 C205.01 100.44, 196.21 110.26, 179.5 110 M179.5 110 C133.42 110.28, 83.69 109.63, 27.5 110 M179.5 110 C132.98 111.18, 86.31 110.82, 27.5 110 M27.5 110 C8.32 109.78, -1.96 102.09, 0 82.5 M27.5 110 C11.33 108.58, 0.62 99.54, 0 82.5 M0 82.5 C1.45 70.39, -1.63 57, 0 27.5 M0 82.5 C-0.59 70.02, -1.11 56.39, 0 27.5 M0 27.5 C-0.27 7.46, 7.27 1.21, 27.5 0 M0 27.5 C-1.28 10.06, 8.76 1.92, 27.5 0" stroke="#1e1e1e" stroke-width="1" fill="none"></path></g><g transform="translate(34.86006164550781 396.3442201920965) rotate(0 78.63993835449219 50)"><text x="78.63993835449219" y="17.52" font-family="Virgil, Segoe UI Emoji" font-size="20px" fill="#1e1e1e" text-anchor="middle" style="white-space: pre;" direction="ltr" dominant-baseline="alphabetic">Verifique cada </text><text x="78.63993835449219" y="42.519999999999996" font-family="Virgil, Segoe UI Emoji" font-size="20px" fill="#1e1e1e" text-anchor="middle" style="white-space: pre;" direction="ltr" dominant-baseline="alphabetic">palavra se </text><text x="78.63993835449219" y="67.52" font-family="Virgil, Segoe UI Emoji" font-size="20px" fill="#1e1e1e" text-anchor="middle" style="white-space: pre;" direction="ltr" dominant-baseline="alphabetic">encontrada em </text><text x="78.63993835449219" y="92.52" font-family="Virgil, Segoe UI Emoji" font-size="20px" fill="#1e1e1e" text-anchor="middle" style="white-space: pre;" direction="ltr" dominant-baseline="alphabetic">cada documento</text></g><g stroke-linecap="round" transform="translate(505.0000915527344 192.1442003556707) rotate(0 112.5 42.5)"><path d="M21.25 0 C79.63 1.76, 137.93 -0.16, 203.75 0 M21.25 0 C65.47 -0.32, 109.3 0.93, 203.75 0 M203.75 0 C216.8 0.29, 225.87 6.43, 225 21.25 M203.75 0 C219.92 1.44, 225.76 5.58, 225 21.25 M225 21.25 C223.55 29.15, 224.69 40.95, 225 63.75 M225 21.25 C225.19 37.69, 224.4 54.09, 225 63.75 M225 63.75 C224.09 79.68, 218.16 85.67, 203.75 85 M225 63.75 C223.27 77.24, 218.45 86.17, 203.75 85 M203.75 85 C148.82 83.65, 93.78 85.36, 21.25 85 M203.75 85 C159.94 86.12, 114.29 85.59, 21.25 85 M21.25 85 C7.05 83.49, 1.63 78.63, 0 63.75 M21.25 85 C7.39 85.06, 1.21 78.77, 0 63.75 M0 63.75 C1.26 45.5, 1.16 28.53, 0 21.25 M0 63.75 C-0.39 54.16, 0.21 46.08, 0 21.25 M0 21.25 C-1.17 5.76, 7.49 0.96, 21.25 0 M0 21.25 C-1.33 8.83, 8.28 0.83, 21.25 0" stroke="#1e1e1e" stroke-width="1" fill="none"></path></g><g transform="translate(510.7301788330078 197.1442003556707) rotate(0 106.76991271972656 37.5)"><text x="106.76991271972656" y="17.52" font-family="Virgil, Segoe UI Emoji" font-size="20px" fill="#1e1e1e" text-anchor="middle" style="white-space: pre;" direction="ltr" dominant-baseline="alphabetic">Verificar a ocorrência</text><text x="106.76991271972656" y="42.519999999999996" font-family="Virgil, Segoe UI Emoji" font-size="20px" fill="#1e1e1e" text-anchor="middle" style="white-space: pre;" direction="ltr" dominant-baseline="alphabetic">da palavra em todo </text><text x="106.76991271972656" y="67.52" font-family="Virgil, Segoe UI Emoji" font-size="20px" fill="#1e1e1e" text-anchor="middle" style="white-space: pre;" direction="ltr" dominant-baseline="alphabetic">o documento</text></g><g stroke-linecap="round" transform="translate(519.4001159667969 401.54423239912774) rotate(0 103.20001220703136 44.79998779296875)"><path d="M22.4 0 C58.51 0.01, 90.88 1.99, 184 0 M22.4 0 C82.66 -1.93, 142.33 -0.95, 184 0 M184 0 C200.1 1.71, 206.96 8.54, 206.4 22.4 M184 0 C199.77 -0.67, 206.65 9.44, 206.4 22.4 M206.4 22.4 C207.82 32.9, 204.64 46.18, 206.4 67.2 M206.4 22.4 C207.03 37.94, 206.64 54.74, 206.4 67.2 M206.4 67.2 C206.09 80.91, 198.33 89.37, 184 89.6 M206.4 67.2 C204.92 80.59, 198.39 90.63, 184 89.6 M184 89.6 C146.98 90.71, 110.06 87.5, 22.4 89.6 M184 89.6 C122.63 89, 58.53 88.18, 22.4 89.6 M22.4 89.6 C8.9 89.21, -1.16 81.98, 0 67.2 M22.4 89.6 C6.3 90.23, -2.08 80.45, 0 67.2 M0 67.2 C-0.97 53.36, -0.97 35.13, 0 22.4 M0 67.2 C-0.5 57.46, 0.64 46.12, 0 22.4 M0 22.4 C0.57 9.09, 7.46 1.1, 22.4 0 M0 22.4 C-0.08 6.21, 5.49 -2.2, 22.4 0" stroke="#1e1e1e" stroke-width="1" fill="none"></path></g><g transform="translate(537.0901870727539 408.8442201920965) rotate(0 85.50994110107422 37.5)"><text x="85.50994110107422" y="17.52" font-family="Virgil, Segoe UI Emoji" font-size="20px" fill="#1e1e1e" text-anchor="middle" style="white-space: pre;" direction="ltr" dominant-baseline="alphabetic">Contar o número </text><text x="85.50994110107422" y="42.519999999999996" font-family="Virgil, Segoe UI Emoji" font-size="20px" fill="#1e1e1e" text-anchor="middle" style="white-space: pre;" direction="ltr" dominant-baseline="alphabetic">total de </text><text x="85.50994110107422" y="67.52" font-family="Virgil, Segoe UI Emoji" font-size="20px" fill="#1e1e1e" text-anchor="middle" style="white-space: pre;" direction="ltr" dominant-baseline="alphabetic">documentos</text></g><g stroke-linecap="round"><g transform="translate(285.5000915527344 237.14419272627617) rotate(0 -18.832230784831324 -0.8533492369635667)"><path d="M0.48 0.06 C-5.85 -0.11, -31.36 -0.78, -37.67 -1.08 M0.06 -0.38 C-6.37 -0.7, -31.86 -1.64, -38.14 -1.77" stroke="#1e1e1e" stroke-width="1" fill="none"></path></g><g transform="translate(285.5000915527344 237.14419272627617) rotate(0 -18.832230784831324 -0.8533492369635667)"><path d="M-20.27 -7.67 C-26.55 -5.61, -32.14 -3.05, -38.14 -1.77 M-20.27 -7.67 C-25.16 -5.87, -30.56 -4.17, -38.14 -1.77" stroke="#1e1e1e" stroke-width="1" fill="none"></path></g><g transform="translate(285.5000915527344 237.14419272627617) rotate(0 -18.832230784831324 -0.8533492369635667)"><path d="M-20.67 5.2 C-26.8 2.66, -32.26 0.62, -38.14 -1.77 M-20.67 5.2 C-25.47 3.38, -30.76 1.45, -38.14 -1.77" stroke="#1e1e1e" stroke-width="1" fill="none"></path></g></g><mask></mask><g stroke-linecap="round"><g transform="translate(459.9000549316406 233.14419272627617) rotate(0 19.13413809044289 -0.15384283374868346)"><path d="M-0.19 -0.35 C6.14 -0.6, 31.95 -0.88, 38.45 -0.97 M0.72 0.65 C6.94 0.72, 31.71 -0.19, 38.05 -0.35" stroke="#1e1e1e" stroke-width="1" fill="none"></path></g><g transform="translate(459.9000549316406 233.14419272627617) rotate(0 19.13413809044289 -0.15384283374868346)"><path d="M20.22 6.78 C26.52 4.12, 33.8 2.04, 38.05 -0.35 M20.22 6.78 C25.01 4.34, 29.92 2.95, 38.05 -0.35" stroke="#1e1e1e" stroke-width="1" fill="none"></path></g><g transform="translate(459.9000549316406 233.14419272627617) rotate(0 19.13413809044289 -0.15384283374868346)"><path d="M19.81 -6.35 C26.33 -3.89, 33.77 -0.86, 38.05 -0.35 M19.81 -6.35 C24.68 -5.06, 29.71 -2.71, 38.05 -0.35" stroke="#1e1e1e" stroke-width="1" fill="none"></path></g></g><mask></mask><g stroke-linecap="round"><g transform="translate(129.50009155273438 285.1441927262762) rotate(0 85.88697040883358 24.665647678222257)"><path d="M-1.11 1.08 C1.86 8.5, -9.67 36.96, 18.92 44.44 C47.51 51.93, 144.95 45.75, 170.41 45.99 M0.5 0.6 C3.26 8.2, -10.49 38.51, 18.24 45.79 C46.98 53.07, 147.24 44.59, 172.89 44.28" stroke="#1e1e1e" stroke-width="1" fill="none"></path></g><g transform="translate(129.50009155273438 285.1441927262762) rotate(0 85.88697040883358 24.665647678222257)"><path d="M149.82 53.92 C160.64 51.23, 167.26 45.28, 172.89 44.28 M149.82 53.92 C159.49 49.84, 169.13 46.1, 172.89 44.28" stroke="#1e1e1e" stroke-width="1" fill="none"></path></g><g transform="translate(129.50009155273438 285.1441927262762) rotate(0 85.88697040883358 24.665647678222257)"><path d="M149.02 36.84 C160.14 40.83, 167.07 41.56, 172.89 44.28 M149.02 36.84 C159.08 39.57, 169.04 42.66, 172.89 44.28" stroke="#1e1e1e" stroke-width="1" fill="none"></path></g></g><mask></mask><g stroke-linecap="round"><g transform="translate(631.1001281738281 287.54418662276055) rotate(0 -92.44102195682467 21.111060729708214)"><path d="M0.58 0.08 C-3.57 6.35, 4.96 31.03, -25.93 38.21 C-56.81 45.38, -158.34 42.41, -184.73 43.12 M-0.58 -0.93 C-4.29 5.48, 7 32.63, -23.81 39.64 C-54.62 46.66, -158.81 40.49, -185.46 41.16" stroke="#1e1e1e" stroke-width="1" fill="none"></path></g><g transform="translate(631.1001281738281 287.54418662276055) rotate(0 -92.44102195682467 21.111060729708214)"><path d="M-161.82 33.01 C-166.74 33, -172.27 36.75, -185.46 41.16 M-161.82 33.01 C-171.17 35.75, -177.95 39, -185.46 41.16" stroke="#1e1e1e" stroke-width="1" fill="none"></path></g><g transform="translate(631.1001281738281 287.54418662276055) rotate(0 -92.44102195682467 21.111060729708214)"><path d="M-162.12 50.11 C-167.05 46.42, -172.52 46.49, -185.46 41.16 M-162.12 50.11 C-171.43 46.69, -178.12 43.79, -185.46 41.16" stroke="#1e1e1e" stroke-width="1" fill="none"></path></g></g><mask></mask><g stroke-linecap="round"><g transform="translate(357.5000915527344 370.1441927262762) rotate(0 -66.39282592311503 40.37480933041641)"><path d="M1.03 1.18 C-1.28 13.06, 7.9 58.7, -14.57 71.65 C-37.05 84.6, -114.23 77.44, -133.82 78.88 M0.12 0.75 C-2.31 12.23, 6.32 56.55, -15.61 69.76 C-37.54 82.97, -112.15 78.59, -131.46 80" stroke="#1e1e1e" stroke-width="1" fill="none"></path></g><g transform="translate(357.5000915527344 370.1441927262762) rotate(0 -66.39282592311503 40.37480933041641)"><path d="M-108.07 71.18 C-111.77 73.24, -118.67 73.97, -131.46 80 M-108.07 71.18 C-114.31 74.22, -120.36 76.13, -131.46 80" stroke="#1e1e1e" stroke-width="1" fill="none"></path></g><g transform="translate(357.5000915527344 370.1441927262762) rotate(0 -66.39282592311503 40.37480933041641)"><path d="M-107.87 88.28 C-111.67 86.18, -118.62 82.76, -131.46 80 M-107.87 88.28 C-114.27 86.71, -120.37 84.02, -131.46 80" stroke="#1e1e1e" stroke-width="1" fill="none"></path></g></g><mask></mask><g stroke-linecap="round"><g transform="translate(383.1000671386719 369.3442049333074) rotate(0 60.806253119981875 38.22162567652677)"><path d="M0.38 -0.3 C3.12 10.98, -5.02 56.15, 15.33 68.87 C35.69 81.59, 104.62 74.8, 122.5 76.02 M-0.88 -1.51 C1.81 10.42, -6.06 56.95, 14.46 70.02 C34.97 83.1, 104.05 75.78, 122.2 76.94" stroke="#1e1e1e" stroke-width="1" fill="none"></path></g><g transform="translate(383.1000671386719 369.3442049333074) rotate(0 60.806253119981875 38.22162567652677)"><path d="M98.86 85.89 C103.11 84.18, 107.23 83.6, 122.2 76.94 M98.86 85.89 C103.58 82.93, 109.36 81.21, 122.2 76.94" stroke="#1e1e1e" stroke-width="1" fill="none"></path></g><g transform="translate(383.1000671386719 369.3442049333074) rotate(0 60.806253119981875 38.22162567652677)"><path d="M98.57 68.79 C103.05 70.63, 107.23 73.59, 122.2 76.94 M98.57 68.79 C103.5 69.87, 109.35 72.18, 122.2 76.94" stroke="#1e1e1e" stroke-width="1" fill="none"></path></g></g><mask></mask><g stroke-linecap="round"><g transform="translate(107.90005493164062 513.3442049333074) rotate(0 94.05739904801828 14.709434682843266)"><path d="M0.45 0.18 C4.66 4.42, -6.06 21.22, 25.34 26.22 C56.75 31.22, 161.72 29.63, 188.89 30.2 M-0.77 -0.78 C3.25 3.52, -7.3 22.42, 24.26 27.25 C55.82 32.07, 161.17 27.58, 188.58 28.17" stroke="#1e1e1e" stroke-width="1" fill="none"></path></g><g transform="translate(107.90005493164062 513.3442049333074) rotate(0 94.05739904801828 14.709434682843266)"><path d="M165.19 36.97 C172.62 33.75, 177.89 32.94, 188.58 28.17 M165.19 36.97 C174.29 34.84, 181.34 30.6, 188.58 28.17" stroke="#1e1e1e" stroke-width="1" fill="none"></path></g><g transform="translate(107.90005493164062 513.3442049333074) rotate(0 94.05739904801828 14.709434682843266)"><path d="M165 19.87 C172.6 21.9, 177.93 26.36, 188.58 28.17 M165 19.87 C174.22 23.72, 181.33 25.46, 188.58 28.17" stroke="#1e1e1e" stroke-width="1" fill="none"></path></g></g><mask></mask><g stroke-linecap="round"><g transform="translate(628.7001037597656 493.3442049333074) rotate(0 -89.15089039805429 26.289243234046694)"><path d="M0.17 -0.03 C-3.17 7.52, 10.86 36.73, -18.97 45.68 C-48.79 54.63, -152.07 52.52, -178.8 53.67 M-1.21 -1.09 C-4.83 6.1, 9.41 35.21, -20.21 44.02 C-49.83 52.84, -152.51 50.19, -178.94 51.79" stroke="#1e1e1e" stroke-width="1" fill="none"></path></g><g transform="translate(628.7001037597656 493.3442049333074) rotate(0 -89.15089039805429 26.289243234046694)"><path d="M-155.6 42.82 C-164.61 45.36, -172.07 51.75, -178.94 51.79 M-155.6 42.82 C-164.09 46.67, -172.89 48.51, -178.94 51.79" stroke="#1e1e1e" stroke-width="1" fill="none"></path></g><g transform="translate(628.7001037597656 493.3442049333074) rotate(0 -89.15089039805429 26.289243234046694)"><path d="M-155.3 59.92 C-164.47 55.88, -172.05 55.69, -178.94 51.79 M-155.3 59.92 C-163.99 57.4, -172.91 52.86, -178.94 51.79" stroke="#1e1e1e" stroke-width="1" fill="none"></path></g></g><mask></mask><g stroke-linecap="round"><g transform="translate(368.7000427246094 582.1442232438543) rotate(0 1.3964802180416882 14.385420029571947)"><path d="M-0.18 -0.34 C0.3 4.38, 2.49 23.73, 2.97 28.54 M0.73 0.68 C1.11 5.45, 1.92 24.38, 2.42 29.11" stroke="#1e1e1e" stroke-width="1" fill="none"></path></g><g transform="translate(368.7000427246094 582.1442232438543) rotate(0 1.3964802180416882 14.385420029571947)"><path d="M-3.48 15.88 C-2.03 19.76, -0.06 23.58, 2.42 29.11 M-3.48 15.88 C-1.79 19.24, -0.58 22.79, 2.42 29.11" stroke="#1e1e1e" stroke-width="1" fill="none"></path></g><g transform="translate(368.7000427246094 582.1442232438543) rotate(0 1.3964802180416882 14.385420029571947)"><path d="M6.41 15.18 C4.73 19.27, 3.58 23.31, 2.42 29.11 M6.41 15.18 C5.57 18.72, 4.26 22.44, 2.42 29.11" stroke="#1e1e1e" stroke-width="1" fill="none"></path></g></g><mask></mask><g stroke-linecap="round"><g transform="translate(371.1000671386719 686.1442232438543) rotate(0 1.0617904345505167 11.63135047466261)"><path d="M-0.17 0.1 C0.28 3.97, 1.9 19.13, 2.29 23 M0.75 -0.33 C1.15 3.64, 1.65 19.55, 1.8 23.59" stroke="#1e1e1e" stroke-width="1" fill="none"></path></g><g transform="translate(371.1000671386719 686.1442232438543) rotate(0 1.0617904345505167 11.63135047466261)"><path d="M-2.57 12.78 C-1.5 15.12, -0.83 17.43, 1.8 23.59 M-2.57 12.78 C-1.14 16.33, 0.16 19.5, 1.8 23.59" stroke="#1e1e1e" stroke-width="1" fill="none"></path></g><g transform="translate(371.1000671386719 686.1442232438543) rotate(0 1.0617904345505167 11.63135047466261)"><path d="M5.4 12.5 C4.66 14.89, 3.53 17.26, 1.8 23.59 M5.4 12.5 C4.29 16.13, 3.05 19.39, 1.8 23.59" stroke="#1e1e1e" stroke-width="1" fill="none"></path></g></g><mask></mask></svg>