<svg width="779" height="141" viewBox="0 0 779 141" fill="none" xmlns="http://www.w3.org/2000/svg">
<path d="M0.740234 140.193V12.833C0.740234 9.80396 1.78196 7.20091 3.8654 5.02381C5.94884 2.75205 8.50579 1.61617 11.5363 1.61617C15.0402 1.61617 17.8813 3.13068 20.0594 6.15968V6.30167L63.5276 70.9047L111.542 6.15968C113.151 3.69862 115.377 2.18412 118.218 1.61617V1.47419H199.756V15.9566H130.719V55.1444H188.25V93.6223H130.719V125.569H199.756V140.193H92.3644V96.6039L71.3405 128.125C69.3518 130.87 66.6528 132.289 63.2435 132.384C59.9289 132.384 57.2773 130.964 55.2886 128.125L18.781 73.4604L38.3843 59.5459L15.3717 25.4696V140.193H0.740234Z" fill="#8D3126"/>
<path d="M208.264 28.3093C208.264 24.6177 208.974 21.1627 210.395 17.9444C211.815 14.6314 213.709 11.7917 216.077 9.42533C218.539 6.96427 221.38 5.02381 224.6 3.60396C227.915 2.18411 231.419 1.47419 235.112 1.47419H285.257V39.952L222.895 40.094V101.999H299.462V25.8956C299.462 22.4879 300.078 19.3169 301.309 16.3826C302.635 13.3536 304.386 10.7505 306.565 8.57343C308.837 6.30167 311.442 4.55053 314.378 3.31999C317.408 1.9948 320.628 1.33221 324.037 1.33221H361.681C365.09 1.33221 368.263 1.9948 371.199 3.31999C374.229 4.55053 376.833 6.30167 379.012 8.57343C381.284 10.7505 383.036 13.3536 384.268 16.3826C385.593 19.3169 386.256 22.4879 386.256 25.8956V140.193H347.476V71.8986H314.093L314.235 140.051L235.112 140.193C231.419 140.193 227.915 139.483 224.6 138.063C221.38 136.644 218.539 134.75 216.077 132.384C213.709 129.923 211.815 127.083 210.395 123.865C208.974 120.552 208.264 117.05 208.264 113.358V28.3093Z" fill="#8D3126"/>
<path d="M464.687 1.47419C468.191 1.47419 471.506 2.13679 474.631 3.46198C477.756 4.78717 480.455 6.63297 482.728 8.99938C485.096 11.2711 486.942 13.9688 488.268 17.0925C489.594 20.1215 490.257 23.3872 490.257 26.8895V58.41C490.257 62.007 489.594 65.3673 488.268 68.491C486.942 71.52 485.096 74.2177 482.728 76.5841C480.455 78.8558 477.756 80.6543 474.631 81.9795C471.506 83.3047 468.191 83.9673 464.687 83.9673H445.51V69.3429H464.687C467.812 69.3429 470.417 68.3017 472.5 66.2192C474.678 64.0421 475.767 61.4391 475.767 58.41V26.8895C475.767 23.8604 474.678 21.3047 472.5 19.2223C470.322 17.0452 467.718 15.9566 464.687 15.9566H411.844V25.7536L436.419 25.4696V140.193H397.212V1.47419H464.687Z" fill="#8D3126"/>
<path d="M512.608 141C510.12 141 507.984 140.109 506.202 138.328C504.419 136.546 503.528 134.412 503.528 131.924C503.528 129.437 504.419 127.302 506.202 125.521C507.984 123.739 510.12 122.849 512.608 122.849C515.097 122.849 517.232 123.739 519.015 125.521C520.797 127.302 521.688 129.437 521.688 131.924C521.688 133.571 521.268 135.084 520.427 136.462C519.62 137.84 518.527 138.95 517.148 139.79C515.803 140.597 514.29 141 512.608 141Z" fill="#8D3126"/>
<path d="M594.091 25.3276C594.091 21.92 594.706 18.749 595.937 15.8146C597.263 12.8803 599.015 10.3246 601.193 8.14747C603.466 5.87571 606.071 4.12457 609.006 2.89404C611.942 1.56885 615.115 0.90625 618.524 0.90625H656.31C659.719 0.90625 662.892 1.56885 665.828 2.89404C668.858 4.12457 671.462 5.87571 673.641 8.14747C675.913 10.3246 677.665 12.8803 678.896 15.8146C680.222 18.749 680.885 21.92 680.885 25.3276V139.767H642.105V71.6146H608.58V116.056H594.091V25.3276ZM539.543 140.193V0.90625H578.181V116.056H577.897V116.198H554.174V125.569H625.342V140.193H539.543Z" fill="#8D3126"/>
<path d="M691.858 25.7536C691.858 22.3459 692.473 19.1749 693.704 16.2406C695.03 13.2116 696.782 10.6085 698.96 8.43144C701.233 6.15969 703.837 4.40854 706.773 3.17801C709.804 1.85282 713.024 1.19022 716.433 1.19022H754.219C757.628 1.19022 760.801 1.85282 763.736 3.17801C766.672 4.40854 769.229 6.15969 771.407 8.43144C773.68 10.6085 775.432 13.2116 776.663 16.2406C777.989 19.1749 778.652 22.3459 778.652 25.7536V56.2803C778.652 58.1734 778.273 59.9246 777.516 61.5337C776.853 63.1429 775.906 64.5627 774.674 65.7933C773.538 66.9291 772.165 67.8757 770.555 68.633C768.945 69.2955 767.24 69.6268 765.441 69.6268H733.479V78.8558H765.441C767.24 78.8558 768.945 79.2345 770.555 79.9917C772.165 80.6543 773.538 81.6009 774.674 82.8314C775.906 83.9673 776.853 85.3871 777.516 87.091C778.273 88.7001 778.652 90.4039 778.652 92.2024V116.766C778.652 119.984 778.036 123.013 776.805 125.853C775.574 128.692 773.917 131.201 771.833 133.378C769.75 135.46 767.24 137.117 764.305 138.347C761.464 139.578 758.433 140.193 755.213 140.193H725.382C723.583 140.193 721.831 139.862 720.126 139.199C718.516 138.442 717.048 137.496 715.723 136.36C714.491 135.129 713.497 133.709 712.739 132.1C711.982 130.491 711.603 128.74 711.603 126.847L711.887 79.1398H718.848V69.3429H711.887V16.9505C710.277 17.7078 708.951 18.891 707.91 20.5001C706.963 22.1093 706.489 23.8604 706.489 25.7536V140.193H691.858V25.7536Z" fill="#8D3126"/>
</svg>
