<svg width="1000" height="1000" viewBox="0 0 1000 1000" fill="none" xmlns="http://www.w3.org/2000/svg">
<rect width="1000" height="1000" fill="#F5EDD8"/>
<path fill-rule="evenodd" clip-rule="evenodd" d="M83 290.471C83 279.542 86.7772 270.15 94.3316 262.295C101.886 254.098 111.157 250 122.146 250C134.851 250 145.152 255.464 153.05 266.393V266.906L310.662 500L484.757 266.393C492.655 255.464 503.128 250 516.176 250C526.821 250 535.749 253.928 542.96 261.783C550.515 269.638 554.292 279.03 554.292 289.959V328.282H553.394V325.336H541.993V328.282H539.152V331.209H541.993V328.282H553.394V331.209H554.292V334.156H553.394V337.083H541.993V340.01H553.394V342.956H541.993V345.883H553.394V342.956H554.292V433.535H552.796V430.104H549.635V426.696H546.495V423.287H540.193V419.857H518.15V423.287H511.87V426.696H508.709V430.104H505.568V433.535H502.408V440.374H499.267V457.439H502.408V464.278H505.568V467.709H508.709V471.117H511.87V474.525H518.15V477.956H540.193V474.525H546.495V471.117H549.635V467.709H552.796V464.278H554.292V575.697H553.376V570.061H550.535V575.706H541.993V578.519H539.134V589.808H541.993V592.622H544.834V595.444H539.134V592.612H522.051V595.444H516.35V589.799H513.509V586.986H510.668V572.884H513.509V570.052H516.35V567.239H524.892V561.594H530.592V567.239H539.134V561.594H544.834V567.239H547.694V570.052H544.834V572.884H547.694V570.052H550.535V567.239H547.694V561.594H544.834V558.781H539.134V561.594H536.293V564.426H533.452V561.594H530.592V558.781H524.892V561.594H522.051V564.426H516.35V567.239H513.509V570.052H510.668V572.884H507.809V586.986H510.668V589.799H513.509V595.444H516.35V598.257H522.051V595.444H539.134V598.257H544.834V595.453H547.694V592.622H553.376V589.808H554.292V669.241H553.376V666.549H550.535V663.876H536.293V666.549H533.433V669.241H530.592V671.915H527.751V685.319H530.592V687.992H533.433V690.684H536.293V693.358H550.535V690.684H553.376V687.992H554.292V701.397H553.376V698.723H550.535V696.049H547.675V698.723H544.834V701.397H541.974V704.088H547.675V712.127H544.834V714.801H533.433V717.492H544.834V714.801H547.675V712.127H550.535V704.088H554.292V750H415.222V592.213L338.991 706.455C331.78 716.359 321.994 721.482 309.632 721.824C297.614 721.824 287.999 716.701 280.788 706.455L148.414 509.221L219.494 459.016L136.053 336.066V750H83V290.471ZM553.376 687.992H550.535V690.684H536.293V687.992H533.433V685.319H530.592V671.915H533.433V669.241H536.293V666.549H550.535V669.241H553.376V671.915H554.292V685.319H553.376V687.992ZM518.15 471.117V474.525H533.892V471.117H540.193V467.709H543.334V464.278H546.495V457.439H549.635V440.374H546.495V433.535H543.334V430.104H540.193V426.696H533.892V423.287H518.15V426.696H511.87V430.104H508.709V433.535H505.568V440.374H502.408V457.439H505.568V464.278H508.709V467.709H511.87V471.117H518.15ZM518.15 467.709V471.117H533.892V467.709H537.053V464.278H540.193V460.869H543.334V457.439H546.495V440.374H543.334V436.943H540.193V433.535H537.053V430.104H533.892V426.696H518.15V430.104H515.01V433.535H511.87V436.943H508.709V440.374H505.568V457.439H508.709V460.869H511.87V464.278H515.01V467.709H518.15ZM518.15 467.709V464.278H515.01V460.869H511.87V457.439H508.709V440.374H511.87V436.943H515.01V433.535H518.15V430.104H533.892V433.535H537.053V436.943H540.193V440.374H543.334V457.439H540.193V460.869H537.053V464.278H533.892V467.709H518.15ZM553.394 340.01V337.083H554.292V340.01H553.394ZM550.535 679.954H547.675V677.28H539.134V674.606H547.675V671.915H544.834V669.241H541.974V671.915H539.134V674.606H536.293V677.28H539.134V679.954H547.675V682.645H539.134V685.319H541.974V687.992H544.834V685.319H547.675V682.645H550.535V679.954ZM527.751 698.723H530.592V712.127H527.751V698.723ZM524.892 696.049H527.751V698.723H524.892V696.049ZM522.051 693.358H524.892V696.049H522.051V693.358ZM507.809 693.358V690.684H522.051V693.358H507.809ZM504.949 696.049V693.358H507.809V696.049H504.949ZM502.108 698.723V696.049H504.949V698.723H502.108ZM502.108 712.127H499.267V698.723H502.108V712.127ZM504.949 714.801H502.108V712.127H504.949V714.801ZM507.809 717.492H504.949V714.801H507.809V717.492ZM522.051 717.492V720.166H507.809V717.492H522.051ZM524.892 714.801V717.492H522.051V714.801H524.892ZM524.892 714.801H527.751V712.127H524.892V714.801ZM524.892 666.549H513.509V669.241H510.65V671.915H507.809V679.954H502.108V682.645H504.949V685.319H507.809V687.992H510.65V685.319H513.509V682.645H516.35V679.954H510.65L510.65 671.915H513.509V669.241H524.892V666.549ZM519.191 712.127V714.801H513.509V712.127H519.191ZM513.509 698.723V701.397H519.191V704.088H510.65V706.762H516.35V709.453H513.509V712.127H510.65V709.453H504.949V706.762H507.809V704.088H504.949V701.397H510.65V698.723H513.509ZM513.509 698.723V696.049H519.191V698.723H513.509ZM553.394 310.663V293.062H536.293V296.008H539.152V298.935H541.993V301.862H539.152V304.809H533.452V301.862H530.611V298.935H527.751V296.008H522.051V298.935H519.21V301.862H516.369V304.809H513.509V307.736H510.668V310.663H516.369V307.736H519.21V304.809H522.051V301.862H527.751V304.809H530.611V307.736H533.452V310.663H539.152V307.736H541.993V304.809H547.694V307.736H550.534V310.663H553.394ZM522.051 316.536H519.21V313.609H504.968V316.536H502.127V319.482H499.267V342.956H502.127V345.883H504.968V348.81H510.668V345.883H504.968V342.956H502.127V337.083H504.968V340.01H510.668V337.083H504.968V334.156H510.668V331.209H504.968V328.282H519.21V331.209H516.369V334.156H513.509V348.81H516.369V351.756H519.21V354.683H533.452V351.756H536.293V348.81H539.152V334.156H536.293V331.209H533.452V328.282H519.21V325.336H524.91V319.482H522.051V316.536ZM522.051 319.482V322.409H519.21V325.336H504.968V322.409H502.127V319.482H504.968V316.536H519.21V319.482H522.051ZM533.452 340.01V337.083H536.293V334.156H533.452V331.209H519.21V334.156H516.369V337.083H519.21V340.01H516.369V342.956H519.21V345.883H516.369V348.81H519.21V351.756H533.452V348.81H536.293V345.883H533.452V342.956H536.293V340.01H533.452ZM533.452 340.01V342.956H519.21V340.01H533.452ZM533.452 345.883V348.81H519.21V345.883H533.452ZM504.968 325.336V328.282H502.127V325.336H504.968ZM504.968 331.209H502.127V334.156H504.968V331.209ZM539.134 547.492H536.293V550.324H533.452V547.492H530.592V544.679H533.452V541.866H536.293V544.679H539.134V547.492ZM541.993 547.492H544.834V550.324H541.993V547.492ZM547.694 586.986H544.834V581.351H547.694V586.986ZM553.376 586.986H550.535V581.351H553.376V586.986ZM539.134 570.052H536.293V572.884H539.134V570.052ZM533.452 555.95H536.293V558.781H533.452V555.95ZM527.751 550.324H530.592V553.137H527.751V550.324ZM524.892 547.492H522.051V544.679H519.21V541.866H510.668V544.679H507.809V547.492H504.968V555.95H507.809V558.781H510.668V561.594H519.21V558.781H522.051V555.95H524.892V547.492ZM519.21 555.95H522.051V547.492H519.21V544.679H510.668V547.492H507.809V555.95H510.668V558.781H519.21V555.95ZM510.668 555.95V547.492H519.21V555.95H510.668ZM504.968 564.426H507.809V567.239H504.968V564.426ZM502.108 564.426V561.594H504.968V564.426H502.108ZM502.108 567.239H499.267V564.426H502.108V567.239ZM502.108 567.239V570.052H504.968V567.239H502.108ZM502.108 541.866H504.968V544.679H502.108V541.866ZM499.267 553.137H502.108V555.95H499.267V553.137ZM530.752 450.622H533.892V457.439H530.752V450.622ZM530.752 447.191V450.622H527.591V457.439H530.752V460.869H527.591V464.278H524.451V460.869H521.311V457.439H524.451V450.622H521.311V447.191H524.451V440.374H521.311V436.943H524.451V433.535H527.591V436.943H530.752V440.374H527.591V447.191H530.752ZM521.311 440.374V447.191H518.15V440.374H521.311ZM530.752 443.783V440.374H533.892V443.783H530.752ZM521.311 454.03V457.439H518.15V454.03H521.311Z" fill="#8D3126"/>
<path fill-rule="evenodd" clip-rule="evenodd" d="M917.928 750V697.234H661.943V663.934H747.271V663.422H748.293V641.692H700.674V638.659H697.833V629.601H700.674V635.646H748.293V623.555H703.533V590.334H706.374V620.542H748.293V590.334H706.374V587.321H748.293V535.509H747.242V532.65H748.293V526.968H742.037V524.108H748.293V521.267H731.645V518.426H748.293V515.567H726.44V518.426H718.641V509.866H726.44V512.726H748.293V509.866H731.645V507.025H748.293V504.184H736.85V501.325H748.293V495.624H747.242V492.783H748.293V440.461H745.672V437.286H742.689V434.11H739.707V430.914H736.704V427.738H730.739V430.903H715.787V427.728H730.739V424.563H736.704V421.366H739.707V418.191H742.689V411.819H745.672V418.191H748.293V411.808H745.672V395.889H748.293V324H746.25V318.472H748.293V304.661H746.25V299.134H748.293V250H609.315V750H917.928ZM743.409 296.379V299.134H746.25L746.25 296.379H743.409ZM740.549 293.624V296.379H743.409L743.409 293.624H740.549ZM734.849 290.851V293.624H740.549V290.851H734.849ZM720.625 290.851H723.466V274.286H732.008V290.851H734.849V274.286H737.708V271.531H717.766V274.286H720.625V290.851ZM714.925 293.624H720.625V290.851H714.925V293.624ZM712.065 296.379H714.925V293.624H712.065V296.379ZM709.224 299.134H712.065V296.379H709.224V299.134ZM706.383 304.661H709.224V299.134H706.383V304.661ZM706.383 318.472V304.661H703.524V318.472H706.383ZM709.224 318.472H706.383V324H709.224V326.754H712.065V329.527H743.409V326.754H746.25L746.25 324H743.409V326.754H712.065V324H709.224V318.472ZM709.224 318.472V312.944H712.065V310.189H720.625V312.944H726.307V315.717H734.849V312.944H737.708V310.189H743.409V312.944H746.25L746.25 318.472H743.409V321.227H740.549V324H714.925V321.227H712.065V318.472H709.224ZM742.689 389.517H745.672V395.889H742.689V389.517ZM739.707 386.342H742.689V389.517H739.707V386.342ZM736.704 383.166H739.707V386.342H736.704V383.166ZM730.739 379.97H736.704V383.166H730.739V379.97ZM715.787 379.97V376.794H730.739V379.97H715.787ZM709.802 383.166H715.787V379.97H709.802V383.166ZM706.82 386.342H709.802V383.166H706.82V386.342ZM703.818 389.517H706.82V386.342H703.818V389.517ZM700.835 395.889H703.818V389.517H700.835V395.889ZM700.835 411.808V395.889H697.833V411.808H700.835ZM703.818 418.18V411.808H700.835V418.18H703.818ZM706.82 421.356V418.18H703.818V421.356H706.82ZM709.802 424.552V427.728H715.787V424.552H709.802ZM709.802 424.552V421.356H706.82V424.552H709.802ZM748.293 424.552H745.672V427.728H748.293V424.552ZM744.648 489.942H747.242V492.783H744.648V489.942ZM744.648 489.942H739.443V484.242H744.648V489.942ZM734.239 498.484H736.85V501.325H734.239V498.484ZM731.645 495.624H734.239V498.484H731.645V495.624ZM729.034 492.783H731.645V495.624H729.034V492.783ZM729.034 492.783H721.235V495.624H713.436V487.083H721.235V489.942H729.034V492.783ZM729.034 504.184H731.645V507.025H729.034V504.184ZM729.034 504.184H708.232V507.025H700.433V498.484H708.232V501.325H729.034V504.184ZM729.034 524.108V521.267H731.645V524.108H729.034ZM729.034 524.108V526.968H716.047V529.809H708.232V521.267H716.047V524.108H729.034ZM739.443 529.809V526.968H742.037V529.809H739.443ZM736.85 532.65V529.809H739.443V532.65H736.85ZM736.85 532.65V535.509H734.239V538.35H726.44V529.809H734.239V532.65H736.85ZM744.648 538.35V535.509H747.242V538.35H744.648ZM744.648 538.35V544.051H739.443V538.35H744.648ZM703.533 623.555V629.601H700.674V623.555H703.533ZM703.044 501.325V504.184H705.638V501.325H703.044ZM731.645 535.509H729.034V532.65H731.645V535.509ZM743.409 304.661H740.549V307.434H743.409V304.661ZM734.849 299.134H732.008V301.907H734.849V299.134ZM726.307 307.434H729.167V310.189H726.307V307.434ZM723.466 299.134H720.625V301.907H723.466V299.134ZM714.925 304.661H717.766V307.434H714.925V304.661ZM731.998 605.438H734.858V608.451H731.998V605.438ZM731.998 629.601H723.457V632.614H731.998V629.601ZM726.317 605.438H729.158V608.451H726.317V605.438ZM723.457 605.438H720.616V608.451H723.457V605.438ZM736.704 402.261H739.707V405.437H736.704V402.261ZM733.722 399.065H736.704V402.261H733.722V399.065ZM733.722 399.065V395.889H730.739V399.065H733.722ZM733.722 408.633V405.437H736.704V408.633H733.722ZM733.722 408.633H730.739V411.808H733.722V408.633ZM724.754 395.889H727.737V402.261H724.754V395.889ZM721.752 402.261H724.754V405.437H721.752V402.261ZM721.752 405.437V411.808H718.77V405.437H721.752ZM715.787 408.633H712.785V405.437H709.802V402.261H712.785V399.065H715.787V395.889H712.785V399.065H709.802V402.261H706.82V405.437H709.802V408.633H712.785V411.808H715.787V408.633Z" fill="#8D3126"/>
<path d="M128.968 243.033V242.551L128.687 242.159C119.806 229.775 108.121 223.5 93.732 223.5C81.3123 223.5 70.7964 228.188 62.2736 237.501C53.7662 246.42 49.5 257.119 49.5 269.518V775V776.5H51H108.913H110.413V775V324.585L197.939 454.544L121.538 508.921L120.353 509.765L121.159 510.975L265.66 727.932L265.67 727.946L265.679 727.959C273.815 739.609 284.759 745.506 298.396 745.506H298.416L298.437 745.506C312.396 745.117 323.514 739.254 331.66 727.979L331.678 727.954L331.695 727.929L412.159 606.416V775V776.5H413.659H565.47H566.97V775V268.955C566.97 256.556 562.704 245.857 554.197 236.938C546.045 227.996 535.902 223.5 523.863 223.5C509.117 223.5 497.242 229.759 488.352 242.15C488.35 242.153 488.348 242.156 488.346 242.159L299.58 497.397L128.968 243.14V243.033ZM949.977 716.957V715.457H948.477H668.283V681.828H760.681H762.181V681.264H763.305V679.764V225V223.5H761.805H608.87H607.37V225V775V776.5H608.87H948.477H949.977V775V716.957Z" stroke="#8D3126" stroke-width="3"/>
</svg>
