<svg width="787" height="653" viewBox="0 0 787 653" fill="none" xmlns="http://www.w3.org/2000/svg">
<path fill-rule="evenodd" clip-rule="evenodd" d="M30.8447 59.9699C30.8447 50.4601 34.1314 42.2876 40.7049 35.4525C47.2783 28.3201 55.3457 24.7539 64.9071 24.7539C75.9625 24.7539 84.9263 29.5088 91.7985 39.0186V39.4644L228.944 242.291L380.432 39.0186C387.305 29.5088 396.418 24.7539 407.772 24.7539C417.035 24.7539 424.803 28.1715 431.078 35.0067C437.651 41.8418 440.938 50.0143 440.938 59.5241V92.8709H440.156V90.3072H430.236V92.8709H427.764V95.4178H430.236V92.8709H440.156V95.4178H440.938V97.9815H440.156V100.528H430.236V103.075H440.156V105.639H430.236V108.186H440.156V105.639H440.938V184.456H439.635V181.471H436.885V178.505H434.152V175.539H428.67V172.554H409.489V175.539H404.024V178.505H401.273V181.471H398.541V184.456H395.79V190.407H393.058V205.256H395.79V211.207H398.541V214.192H401.273V217.158H404.024V220.124H409.489V223.109H428.67V220.124H434.152V217.158H436.885V214.192H439.635V211.207H440.938V308.158H440.14V303.254H437.668V308.166H430.236V310.614H427.747V320.437H430.236V322.885H432.708V325.341H427.747V322.877H412.883V325.341H407.923V320.429H405.451V317.981H402.978V305.71H405.451V303.246H407.923V300.799H415.355V295.887H420.315V300.799H427.747V295.887H432.708V300.799H435.196V303.246H432.708V305.71H435.196V303.246H437.668V300.799H435.196V295.887H432.708V293.439H427.747V295.887H425.275V298.351H422.803V295.887H420.315V293.439H415.355V295.887H412.883V298.351H407.923V300.799H405.451V303.246H402.978V305.71H400.49V317.981H402.978V320.429H405.451V325.341H407.923V327.789H412.883V325.341H427.747V327.789H432.708V325.349H435.196V322.885H440.14V320.437H440.938V389.555H440.14V387.213H437.668V384.886H425.275V387.213H422.787V389.555H420.315V391.881H417.843V403.545H420.315V405.872H422.787V408.213H425.275V410.54H437.668V408.213H440.14V405.872H440.938V417.535H440.14V415.209H437.668V412.882H435.18V415.209H432.708V417.535H430.219V419.877H435.18V426.872H432.708V429.199H422.787V431.541H432.708V429.199H435.18V426.872H437.668V419.877H440.938V459.828H319.927V322.53L253.595 421.937C247.32 430.555 238.805 435.013 228.048 435.31C217.59 435.31 209.224 430.852 202.949 421.937L87.7648 250.315L149.615 206.629L77.0082 99.6436V459.828H30.8447V59.9699ZM440.14 405.872H437.668V408.213H425.275V405.872H422.787V403.545H420.315V391.881H422.787V389.555H425.275V387.213H437.668V389.555H440.14V391.881H440.938V403.545H440.14V405.872ZM409.489 217.158V220.124H423.187V217.158H428.67V214.192H431.402V211.207H434.152V205.256H436.885V190.407H434.152V184.456H431.402V181.471H428.67V178.505H423.187V175.539H409.489V178.505H404.024V181.471H401.273V184.456H398.541V190.407H395.79V205.256H398.541V211.207H401.273V214.192H404.024V217.158H409.489ZM409.489 214.192V217.158H423.187V214.192H425.937V211.207H428.67V208.241H431.402V205.256H434.152V190.407H431.402V187.422H428.67V184.456H425.937V181.471H423.187V178.505H409.489V181.471H406.756V184.456H404.024V187.422H401.273V190.407H398.541V205.256H401.273V208.241H404.024V211.207H406.756V214.192H409.489ZM409.489 214.192V211.207H406.756V208.241H404.024V205.256H401.273V190.407H404.024V187.422H406.756V184.456H409.489V181.471H423.187V184.456H425.937V187.422H428.67V190.407H431.402V205.256H428.67V208.241H425.937V211.207H423.187V214.192H409.489ZM440.156 103.075V100.528H440.938V103.075H440.156ZM437.668 398.876H435.18V396.55H427.747V394.223H435.18V391.881H432.708V389.555H430.219V391.881H427.747V394.223H425.275V396.55H427.747V398.876H435.18V401.218H427.747V403.545H430.219V405.872H432.708V403.545H435.18V401.218H437.668V398.876ZM417.843 415.209H420.315V426.872H417.843V415.209ZM415.355 412.882H417.843V415.209H415.355V412.882ZM412.883 410.54H415.355V412.882H412.883V410.54ZM400.49 410.54V408.213H412.883V410.54H400.49ZM398.002 412.882V410.54H400.49V412.882H398.002ZM395.53 415.209V412.882H398.002V415.209H395.53ZM395.53 426.872H393.058V415.209H395.53V426.872ZM398.002 429.199H395.53V426.872H398.002V429.199ZM400.49 431.541H398.002V429.199H400.49V431.541ZM412.883 431.541V433.867H400.49V431.541H412.883ZM415.355 429.199V431.541H412.883V429.199H415.355ZM415.355 429.199H417.843V426.872H415.355V429.199ZM415.355 387.213H405.451V389.555H402.962V391.881H400.49V398.876H395.53V401.218H398.002V403.545H400.49V405.872H402.962V403.545H405.451V401.218H407.923V398.876H402.962V391.881H405.451V389.555H415.355V387.213ZM410.395 426.872V429.199H405.451V426.872H410.395ZM405.451 415.209V417.535H410.395V419.877H402.962V422.204H407.923V424.546H405.451V426.872H402.962V424.546H398.002V422.204H400.49V419.877H398.002V417.535H402.962V415.209H405.451ZM405.451 415.209V412.882H410.395V415.209H405.451ZM440.156 62.2241H425.275V64.7878H427.764V67.3347H430.236V69.8816H427.764V72.4453H422.803V69.8816H420.331V67.3347H417.843V64.7878H412.883V67.3347H410.411V69.8816H407.939V72.4453H405.451V74.9922H402.979V77.5391H407.939V74.9922H410.411V72.4453H412.883V69.8816H417.843V72.4453H420.331V74.9922H422.803V77.5391H427.764V74.9922H430.236V72.4453H435.196V74.9922H437.668V77.5391H440.156V62.2241ZM412.883 82.6497H410.411V80.1028H398.018V82.6497H395.546V85.2134H393.058V105.639H395.546V108.186H398.018V110.733H402.979V108.186H398.018V105.639H395.546V100.528H398.018V103.075H402.979V100.528H398.018V97.9815H402.979V95.4178H398.018V92.8709H410.411V95.4178H407.939V97.9815H405.451V110.733H407.939V113.297H410.411V115.843H422.803V113.297H425.275V110.733H427.764V97.9815H425.275V95.4178H422.803V92.8709H410.411V90.3072H415.371V85.2134H412.883V82.6497ZM412.883 85.2134V87.7603H410.411V90.3072H398.018V87.7603H395.546V85.2134H398.018V82.6497H410.411V85.2134H412.883ZM422.803 103.075V100.528H425.275V97.9815H422.803V95.4178H410.411V97.9815H407.939V100.528H410.411V103.075H407.939V105.639H410.411V108.186H407.939V110.733H410.411V113.297H422.803V110.733H425.275V108.186H422.803V105.639H425.275V103.075H422.803ZM422.803 103.075V105.639H410.411V103.075H422.803ZM422.803 108.186V110.733H410.411V108.186H422.803ZM398.018 90.3072V92.8709H395.546V90.3072H398.018ZM398.018 95.4178H395.546V97.9815H398.018V95.4178ZM427.747 283.616H425.275V286.08H422.803V283.616H420.315V281.168H422.803V278.72H425.275V281.168H427.747V283.616ZM430.236 283.616H432.708V286.08H430.236V283.616ZM435.196 317.981H432.708V313.078H435.196V317.981ZM440.14 317.981H437.668V313.078H440.14V317.981ZM427.747 303.246H425.275V305.71H427.747V303.246ZM422.803 290.975H425.275V293.439H422.803V290.975ZM417.843 286.08H420.315V288.527H417.843V286.08ZM415.355 283.616H412.883V281.168H410.411V278.72H402.978V281.168H400.49V283.616H398.018V290.975H400.49V293.439H402.978V295.887H410.411V293.439H412.883V290.975H415.355V283.616ZM410.411 290.975H412.883V283.616H410.411V281.168H402.978V283.616H400.49V290.975H402.978V293.439H410.411V290.975ZM402.978 290.975V283.616H410.411V290.975H402.978ZM398.018 298.351H400.49V300.799H398.018V298.351ZM395.53 298.351V295.887H398.018V298.351H395.53ZM395.53 300.799H393.058V298.351H395.53V300.799ZM395.53 300.799V303.246H398.018V300.799H395.53ZM395.53 278.72H398.018V281.168H395.53V278.72ZM393.058 288.527H395.53V290.975H393.058V288.527ZM420.454 199.324H423.187V205.256H420.454V199.324ZM420.454 196.339V199.324H417.704V205.256H420.454V208.241H417.704V211.207H414.971V208.241H412.239V205.256H414.971V199.324H412.239V196.339H414.971V190.407H412.239V187.422H414.971V184.456H417.704V187.422H420.454V190.407H417.704V196.339H420.454ZM412.239 190.407V196.339H409.489V190.407H412.239ZM420.454 193.373V190.407H423.187V193.373H420.454ZM412.239 202.29V205.256H409.489V202.29H412.239Z" fill="#8D3126"/>
<path fill-rule="evenodd" clip-rule="evenodd" d="M757.355 459.828V413.913H534.611V384.938H608.859V384.492H609.748V365.583H568.312V362.944H565.84V355.062H568.312V360.323H609.748V349.801H570.8V320.894H573.272V347.18H609.748V320.894H573.272V318.272H609.748V273.189H608.833V270.701H609.748V265.756H604.304V263.268H609.748V260.796H595.261V258.324H609.748V255.836H590.732V258.324H583.946V250.876H590.732V253.364H609.748V250.876H595.261V248.404H609.748V245.932H599.79V243.443H609.748V238.483H608.833V236.011H609.748V190.483H607.467V187.72H604.872V184.957H602.276V182.176H599.664V179.413H594.473V182.167H581.463V179.403H594.473V176.649H599.664V173.868H602.276V171.105H604.872V165.56H607.467V171.105H609.748V165.551H607.467V151.699H609.748V89.1443H607.97V84.3343H609.748V72.3173H607.97V67.5073H609.748V24.7539H488.817V459.828H757.355ZM605.498 65.1102V67.5073L607.97 67.5073V65.1102H605.498ZM603.009 62.7131V65.1102H605.498L605.498 62.7131H603.009ZM598.049 60.3002V62.7131H603.009L603.009 60.3002H598.049ZM585.673 60.3002H588.145V45.8861H595.577V60.3002L598.049 60.3002L598.049 45.8861H600.537V43.489H583.185V45.8861H585.673V60.3002ZM580.713 62.7131H585.673L585.673 60.3002L580.713 60.3002V62.7131ZM578.224 65.1102H580.713V62.7131H578.224V65.1102ZM575.752 67.5073H578.224V65.1102H575.752V67.5073ZM573.28 72.3173H575.752V67.5073L573.28 67.5073V72.3173ZM573.28 84.3343V72.3173L570.792 72.3173V84.3343H573.28ZM575.752 84.3343L573.28 84.3343V89.1443L575.752 89.1443V91.5414L578.224 91.5414V93.9542H605.498V91.5414H607.97V89.1443L605.498 89.1443V91.5414L578.224 91.5414V89.1443H575.752V84.3343ZM575.752 84.3343V79.5243H578.224V77.1272H585.673V79.5243H590.617V81.9372H598.049V79.5243H600.537V77.1272H605.498V79.5243H607.97L607.97 84.3343L605.498 84.3343V86.7314H603.009V89.1443H580.713V86.7314H578.224V84.3343H575.752ZM604.872 146.154H607.467V151.699H604.872V146.154ZM602.276 143.391H604.872V146.154H602.276V143.391ZM599.664 140.628H602.276V143.391H599.664V140.628ZM594.473 137.847H599.664V140.628H594.473V137.847ZM581.463 137.847V135.084H594.473V137.847H581.463ZM576.255 140.628H581.463V137.847H576.255V140.628ZM573.66 143.391H576.255V140.628H573.66V143.391ZM571.048 146.154H573.66V143.391H571.048V146.154ZM568.452 151.699H571.048V146.154H568.452V151.699ZM568.452 165.551V151.699H565.84V165.551H568.452ZM571.048 171.096V165.551H568.452V171.096H571.048ZM573.66 173.859V171.096H571.048V173.859H573.66ZM576.255 176.64V179.403H581.463V176.64H576.255ZM576.255 176.64V173.859H573.66V176.64H576.255ZM609.748 176.64H607.467V179.403H609.748V176.64ZM606.576 233.539H608.833V236.011H606.576V233.539ZM606.576 233.539H602.047V228.579H606.576V233.539ZM597.518 240.971H599.79V243.443H597.518V240.971ZM595.261 238.483H597.518V240.971H595.261V238.483ZM592.989 236.011H595.261V238.483H592.989V236.011ZM592.989 236.011H586.203V238.483H579.417V231.051H586.203V233.539H592.989V236.011ZM592.989 245.932H595.261V248.404H592.989V245.932ZM592.989 245.932H574.888V248.404H568.102V240.971H574.888V243.443H592.989V245.932ZM592.989 263.268V260.796H595.261V263.268H592.989ZM592.989 263.268V265.756H581.689V268.228H574.888V260.796H581.689V263.268H592.989ZM602.047 268.228V265.756H604.304V268.228H602.047ZM599.79 270.701V268.228H602.047V270.701H599.79ZM599.79 270.701V273.189H597.518V275.661H590.732V268.228H597.518V270.701H599.79ZM606.576 275.661V273.189H608.833V275.661H606.576ZM606.576 275.661V280.621H602.047V275.661H606.576ZM570.8 349.801V355.062H568.312V349.801H570.8ZM570.374 243.443V245.932H572.631V243.443H570.374ZM595.261 273.189H592.989V270.701H595.261V273.189ZM605.498 72.3173H603.009V74.7301H605.498V72.3173ZM598.049 67.5073H595.577V69.9202H598.049V67.5073ZM590.617 74.7301H593.105V77.1272H590.617V74.7301ZM588.145 67.5073H585.673V69.9202H588.145V67.5073ZM580.713 72.3173H583.185V74.7301H580.713V72.3173ZM595.569 334.037H598.057V336.659H595.569V334.037ZM595.569 355.062H588.137V357.684H595.569V355.062ZM590.625 334.037H593.097V336.659H590.625V334.037ZM588.137 334.037H585.665V336.659H588.137V334.037ZM599.664 157.244H602.276V160.007H599.664V157.244ZM597.069 154.462H599.664V157.244H597.069V154.462ZM597.069 154.462V151.699H594.473V154.462H597.069ZM597.069 162.788V160.007H599.664V162.788H597.069ZM597.069 162.788H594.473V165.551H597.069V162.788ZM589.266 151.699H591.861V157.244H589.266V151.699ZM586.653 157.244H589.266V160.007H586.653V157.244ZM586.653 160.007V165.551H584.058V160.007H586.653ZM581.463 162.788H578.85V160.007H576.255V157.244H578.85V154.462H581.463V151.699H578.85V154.462H576.255V157.244H573.66V160.007H576.255V162.788H578.85V165.551H581.463V162.788Z" fill="#8D3126"/>
<path d="M54.8929 481.581V90.2912L130.591 202.688L64.2651 249.895L63.0804 250.738L63.8865 251.948L189.624 440.733L189.633 440.747L189.643 440.76C196.757 450.946 206.338 456.112 218.271 456.112H218.291L218.312 456.111C230.519 455.771 240.249 450.64 247.374 440.78L247.392 440.755L247.409 440.729L317.067 335.535V481.581V483.081H318.567H450.665H452.165V481.581V41.2473C452.165 30.4095 448.435 21.0524 440.999 13.2552C433.869 5.43503 424.991 1.5 414.46 1.5C401.565 1.5 391.174 6.97826 383.404 17.808C383.401 17.811 383.399 17.814 383.397 17.817L219.309 239.687L71.0382 18.7249V18.6912V18.2089L70.7571 17.817C62.9956 6.99412 52.7714 1.5 40.1831 1.5C29.3211 1.5 20.1193 5.60242 12.6674 13.7443C5.23082 21.5417 1.5 30.8993 1.5 41.7376V481.581V483.081H3H53.3929H54.8929V481.581ZM785.437 431.075V429.575H783.937H540.322V400.702H620.527H622.027V400.212H623.005V398.712V3V1.5H621.505H488.429H486.929V3V481.581V483.081H488.429H783.937H785.437V481.581V431.075Z" stroke="#8D3126" stroke-width="3"/>
<path d="M4.74023 652.193V524.833C4.74023 521.804 5.78196 519.201 7.8654 517.024C9.94884 514.752 12.5058 513.616 15.5363 513.616C19.0402 513.616 21.8813 515.131 24.0594 518.16V518.302L67.5276 582.905L115.542 518.16C117.151 515.699 119.377 514.184 122.218 513.616V513.474H203.756V527.957H134.719V567.144H192.25V605.622H134.719V637.569H203.756V652.193H96.3644V608.604L75.3405 640.125C73.3518 642.87 70.6528 644.289 67.2435 644.384C63.9289 644.384 61.2773 642.964 59.2886 640.125L22.781 585.46L42.3843 571.546L19.3717 537.47V652.193H4.74023Z" fill="#8D3126"/>
<path d="M212.264 540.309C212.264 536.618 212.974 533.163 214.395 529.944C215.815 526.631 217.709 523.792 220.077 521.425C222.539 518.964 225.38 517.024 228.6 515.604C231.915 514.184 235.419 513.474 239.112 513.474H289.257V551.952L226.895 552.094V613.999H303.462V537.896C303.462 534.488 304.078 531.317 305.309 528.383C306.635 525.354 308.386 522.751 310.565 520.573C312.837 518.302 315.442 516.551 318.378 515.32C321.408 513.995 324.628 513.332 328.037 513.332H365.681C369.09 513.332 372.263 513.995 375.199 515.32C378.229 516.551 380.833 518.302 383.012 520.573C385.284 522.751 387.036 525.354 388.268 528.383C389.593 531.317 390.256 534.488 390.256 537.896V652.193H351.476V583.899H318.093L318.235 652.051L239.112 652.193C235.419 652.193 231.915 651.483 228.6 650.063C225.38 648.644 222.539 646.75 220.077 644.384C217.709 641.923 215.815 639.083 214.395 635.865C212.974 632.552 212.264 629.05 212.264 625.358V540.309Z" fill="#8D3126"/>
<path d="M468.687 513.474C472.191 513.474 475.506 514.137 478.631 515.462C481.756 516.787 484.455 518.633 486.728 520.999C489.096 523.271 490.942 525.969 492.268 529.093C493.594 532.122 494.257 535.387 494.257 538.889V570.41C494.257 574.007 493.594 577.367 492.268 580.491C490.942 583.52 489.096 586.218 486.728 588.584C484.455 590.856 481.756 592.654 478.631 593.98C475.506 595.305 472.191 595.967 468.687 595.967H449.51V581.343H468.687C471.812 581.343 474.417 580.302 476.5 578.219C478.678 576.042 479.767 573.439 479.767 570.41V538.889C479.767 535.86 478.678 533.305 476.5 531.222C474.322 529.045 471.718 527.957 468.687 527.957H415.844V537.754L440.419 537.47V652.193H401.212V513.474H468.687Z" fill="#8D3126"/>
<path d="M516.608 653C514.12 653 511.984 652.109 510.202 650.328C508.419 648.546 507.528 646.412 507.528 643.924C507.528 641.437 508.419 639.302 510.202 637.521C511.984 635.739 514.12 634.849 516.608 634.849C519.097 634.849 521.232 635.739 523.015 637.521C524.797 639.302 525.688 641.437 525.688 643.924C525.688 645.571 525.268 647.084 524.427 648.462C523.62 649.84 522.527 650.95 521.148 651.79C519.803 652.597 518.29 653 516.608 653Z" fill="#8D3126"/>
<path d="M598.091 537.328C598.091 533.92 598.706 530.749 599.937 527.815C601.263 524.88 603.015 522.325 605.193 520.147C607.466 517.876 610.071 516.125 613.006 514.894C615.942 513.569 619.115 512.906 622.524 512.906H660.31C663.719 512.906 666.892 513.569 669.828 514.894C672.858 516.125 675.462 517.876 677.641 520.147C679.913 522.325 681.665 524.88 682.896 527.815C684.222 530.749 684.885 533.92 684.885 537.328V651.767H646.105V583.615H612.58V628.056H598.091V537.328ZM543.543 652.193V512.906H582.181V628.056H581.897V628.198H558.174V637.569H629.342V652.193H543.543Z" fill="#8D3126"/>
<path d="M695.858 537.754C695.858 534.346 696.473 531.175 697.704 528.241C699.03 525.212 700.782 522.609 702.96 520.431C705.233 518.16 707.837 516.409 710.773 515.178C713.804 513.853 717.024 513.19 720.433 513.19H758.219C761.628 513.19 764.801 513.853 767.736 515.178C770.672 516.409 773.229 518.16 775.407 520.431C777.68 522.609 779.432 525.212 780.663 528.241C781.989 531.175 782.652 534.346 782.652 537.754V568.28C782.652 570.173 782.273 571.925 781.516 573.534C780.853 575.143 779.906 576.563 778.674 577.793C777.538 578.929 776.165 579.876 774.555 580.633C772.945 581.296 771.24 581.627 769.441 581.627H737.479V590.856H769.441C771.24 590.856 772.945 591.234 774.555 591.992C776.165 592.654 777.538 593.601 778.674 594.831C779.906 595.967 780.853 597.387 781.516 599.091C782.273 600.7 782.652 602.404 782.652 604.202V628.766C782.652 631.984 782.036 635.013 780.805 637.853C779.574 640.692 777.917 643.201 775.833 645.378C773.75 647.46 771.24 649.117 768.305 650.347C765.464 651.578 762.433 652.193 759.213 652.193H729.382C727.583 652.193 725.831 651.862 724.126 651.199C722.516 650.442 721.048 649.496 719.723 648.36C718.491 647.129 717.497 645.709 716.739 644.1C715.982 642.491 715.603 640.74 715.603 638.847L715.887 591.14H722.848V581.343H715.887V528.951C714.277 529.708 712.951 530.891 711.91 532.5C710.963 534.109 710.489 535.86 710.489 537.754V652.193H695.858V537.754Z" fill="#8D3126"/>
</svg>
