<svg width="1000" height="1000" viewBox="0 0 1000 1000" fill="none" xmlns="http://www.w3.org/2000/svg">
<circle cx="500" cy="500" r="500" fill="#ECF0F1"/>
<circle cx="500" cy="500" r="447.5" stroke="#158AD8" stroke-width="5"/>
<mask id="path-3-outside-1_31_388" maskUnits="userSpaceOnUse" x="114.555" y="427.832" width="778" height="144" fill="black">
<rect fill="white" x="114.555" y="427.832" width="778" height="144"/>
<path d="M134.654 558.324H199.247V458.351L162.36 538.797L125.473 458.184V563.331L120.555 563.164V446.334H125.473L162.36 526.947L199.247 446.501L204.166 446.334V563.331L134.654 563.164V558.324Z"/>
<path d="M295.483 502.246H246.792L296.959 451.508H241.546V558.324H305.156V563.331H236.628V446.501H308.927L258.76 497.239H295.483V502.246Z"/>
<path d="M402.239 541.968C399.288 549.311 395.135 554.986 389.779 558.992C384.424 562.997 376.39 565 365.679 565C352.236 565 342.509 560.828 336.497 552.483C330.486 544.026 327.481 530.897 327.481 513.094V496.738C327.481 478.935 330.486 465.861 336.497 457.516C342.509 449.06 352.236 444.832 365.679 444.832C376.39 444.832 384.424 446.835 389.779 450.84C395.135 454.846 399.288 460.521 402.239 467.864L397.812 470.034C395.298 463.58 391.746 458.629 387.156 455.18C382.566 451.619 375.407 449.839 365.679 449.839C360.324 449.839 355.733 450.562 351.908 452.009C348.083 453.344 344.64 455.681 341.58 459.019C338.519 462.357 336.224 467.197 334.694 473.539C333.164 479.77 332.399 487.503 332.399 496.738V513.094C332.399 522.329 333.164 530.118 334.694 536.46C336.224 542.691 338.519 547.476 341.58 550.814C344.64 554.152 348.083 556.544 351.908 557.99C355.733 559.325 360.324 559.993 365.679 559.993C375.407 559.993 382.566 558.268 387.156 554.819C391.746 551.259 395.298 546.252 397.812 539.798L402.239 541.968Z"/>
<path d="M430.259 558.324H490.59L455.834 461.021L419.275 563.331H414.029L455.834 446.334L497.64 563.331H430.259V558.324Z"/>
<path d="M557.462 507.253L555.003 502.913L564.184 497.572C571.725 493.344 575.496 486.613 575.496 477.378C575.496 460.131 562.599 451.508 536.805 451.508H521.723V563.331H516.804V446.501H536.805C551.232 446.501 562.107 449.227 569.43 454.679C576.753 460.02 580.414 467.586 580.414 477.378C580.414 488.504 575.824 496.682 566.643 501.912L557.462 507.253Z"/>
<path d="M599.82 553.651H610.64V563.331H599.82V553.651Z"/>
<path d="M708.29 558.324V563.331H639.762V446.501H644.68V558.324H708.29Z"/>
<path d="M729.968 558.324H790.299L755.543 461.021L718.984 563.331H713.737L755.543 446.334L797.348 563.331H729.968V558.324Z"/>
<path d="M842.744 563.331H816.513V446.501H836.514C850.941 446.501 861.816 449.227 869.139 454.679C876.462 460.02 880.123 467.586 880.123 477.378C880.123 488.504 875.533 496.682 866.352 501.912C879.686 507.03 886.353 516.655 886.353 530.786C886.353 540.8 882.746 548.755 875.533 554.652C868.319 560.438 857.39 563.331 842.744 563.331ZM842.744 558.324C847.881 558.324 852.581 557.935 856.843 557.156C861.106 556.266 865.15 554.875 868.975 552.983C872.91 550.98 875.97 548.088 878.156 544.304C880.342 540.521 881.435 536.015 881.435 530.786C881.435 518.88 875.806 510.813 864.549 506.585L854.712 502.913L863.893 497.572C871.434 493.344 875.205 486.613 875.205 477.378C875.205 460.131 862.308 451.508 836.514 451.508H821.431V558.324H842.744Z"/>
</mask>
<path d="M134.654 558.324H199.247V458.351L162.36 538.797L125.473 458.184V563.331L120.555 563.164V446.334H125.473L162.36 526.947L199.247 446.501L204.166 446.334V563.331L134.654 563.164V558.324Z" fill="black"/>
<path d="M295.483 502.246H246.792L296.959 451.508H241.546V558.324H305.156V563.331H236.628V446.501H308.927L258.76 497.239H295.483V502.246Z" fill="black"/>
<path d="M402.239 541.968C399.288 549.311 395.135 554.986 389.779 558.992C384.424 562.997 376.39 565 365.679 565C352.236 565 342.509 560.828 336.497 552.483C330.486 544.026 327.481 530.897 327.481 513.094V496.738C327.481 478.935 330.486 465.861 336.497 457.516C342.509 449.06 352.236 444.832 365.679 444.832C376.39 444.832 384.424 446.835 389.779 450.84C395.135 454.846 399.288 460.521 402.239 467.864L397.812 470.034C395.298 463.58 391.746 458.629 387.156 455.18C382.566 451.619 375.407 449.839 365.679 449.839C360.324 449.839 355.733 450.562 351.908 452.009C348.083 453.344 344.64 455.681 341.58 459.019C338.519 462.357 336.224 467.197 334.694 473.539C333.164 479.77 332.399 487.503 332.399 496.738V513.094C332.399 522.329 333.164 530.118 334.694 536.46C336.224 542.691 338.519 547.476 341.58 550.814C344.64 554.152 348.083 556.544 351.908 557.99C355.733 559.325 360.324 559.993 365.679 559.993C375.407 559.993 382.566 558.268 387.156 554.819C391.746 551.259 395.298 546.252 397.812 539.798L402.239 541.968Z" fill="black"/>
<path d="M430.259 558.324H490.59L455.834 461.021L419.275 563.331H414.029L455.834 446.334L497.64 563.331H430.259V558.324Z" fill="black"/>
<path d="M557.462 507.253L555.003 502.913L564.184 497.572C571.725 493.344 575.496 486.613 575.496 477.378C575.496 460.131 562.599 451.508 536.805 451.508H521.723V563.331H516.804V446.501H536.805C551.232 446.501 562.107 449.227 569.43 454.679C576.753 460.02 580.414 467.586 580.414 477.378C580.414 488.504 575.824 496.682 566.643 501.912L557.462 507.253Z" fill="black"/>
<path d="M599.82 553.651H610.64V563.331H599.82V553.651Z" fill="black"/>
<path d="M708.29 558.324V563.331H639.762V446.501H644.68V558.324H708.29Z" fill="black"/>
<path d="M729.968 558.324H790.299L755.543 461.021L718.984 563.331H713.737L755.543 446.334L797.348 563.331H729.968V558.324Z" fill="black"/>
<path d="M842.744 563.331H816.513V446.501H836.514C850.941 446.501 861.816 449.227 869.139 454.679C876.462 460.02 880.123 467.586 880.123 477.378C880.123 488.504 875.533 496.682 866.352 501.912C879.686 507.03 886.353 516.655 886.353 530.786C886.353 540.8 882.746 548.755 875.533 554.652C868.319 560.438 857.39 563.331 842.744 563.331ZM842.744 558.324C847.881 558.324 852.581 557.935 856.843 557.156C861.106 556.266 865.15 554.875 868.975 552.983C872.91 550.98 875.97 548.088 878.156 544.304C880.342 540.521 881.435 536.015 881.435 530.786C881.435 518.88 875.806 510.813 864.549 506.585L854.712 502.913L863.893 497.572C871.434 493.344 875.205 486.613 875.205 477.378C875.205 460.131 862.308 451.508 836.514 451.508H821.431V558.324H842.744Z" fill="black"/>
<path d="M134.654 558.324H199.247V458.351L162.36 538.797L125.473 458.184V563.331L120.555 563.164V446.334H125.473L162.36 526.947L199.247 446.501L204.166 446.334V563.331L134.654 563.164V558.324Z" stroke="black" stroke-width="12" mask="url(#path-3-outside-1_31_388)"/>
<path d="M295.483 502.246H246.792L296.959 451.508H241.546V558.324H305.156V563.331H236.628V446.501H308.927L258.76 497.239H295.483V502.246Z" stroke="black" stroke-width="12" mask="url(#path-3-outside-1_31_388)"/>
<path d="M402.239 541.968C399.288 549.311 395.135 554.986 389.779 558.992C384.424 562.997 376.39 565 365.679 565C352.236 565 342.509 560.828 336.497 552.483C330.486 544.026 327.481 530.897 327.481 513.094V496.738C327.481 478.935 330.486 465.861 336.497 457.516C342.509 449.06 352.236 444.832 365.679 444.832C376.39 444.832 384.424 446.835 389.779 450.84C395.135 454.846 399.288 460.521 402.239 467.864L397.812 470.034C395.298 463.58 391.746 458.629 387.156 455.18C382.566 451.619 375.407 449.839 365.679 449.839C360.324 449.839 355.733 450.562 351.908 452.009C348.083 453.344 344.64 455.681 341.58 459.019C338.519 462.357 336.224 467.197 334.694 473.539C333.164 479.77 332.399 487.503 332.399 496.738V513.094C332.399 522.329 333.164 530.118 334.694 536.46C336.224 542.691 338.519 547.476 341.58 550.814C344.64 554.152 348.083 556.544 351.908 557.99C355.733 559.325 360.324 559.993 365.679 559.993C375.407 559.993 382.566 558.268 387.156 554.819C391.746 551.259 395.298 546.252 397.812 539.798L402.239 541.968Z" stroke="black" stroke-width="12" mask="url(#path-3-outside-1_31_388)"/>
<path d="M430.259 558.324H490.59L455.834 461.021L419.275 563.331H414.029L455.834 446.334L497.64 563.331H430.259V558.324Z" stroke="black" stroke-width="12" mask="url(#path-3-outside-1_31_388)"/>
<path d="M557.462 507.253L555.003 502.913L564.184 497.572C571.725 493.344 575.496 486.613 575.496 477.378C575.496 460.131 562.599 451.508 536.805 451.508H521.723V563.331H516.804V446.501H536.805C551.232 446.501 562.107 449.227 569.43 454.679C576.753 460.02 580.414 467.586 580.414 477.378C580.414 488.504 575.824 496.682 566.643 501.912L557.462 507.253Z" stroke="black" stroke-width="12" mask="url(#path-3-outside-1_31_388)"/>
<path d="M599.82 553.651H610.64V563.331H599.82V553.651Z" stroke="black" stroke-width="12" mask="url(#path-3-outside-1_31_388)"/>
<path d="M708.29 558.324V563.331H639.762V446.501H644.68V558.324H708.29Z" stroke="black" stroke-width="12" mask="url(#path-3-outside-1_31_388)"/>
<path d="M729.968 558.324H790.299L755.543 461.021L718.984 563.331H713.737L755.543 446.334L797.348 563.331H729.968V558.324Z" stroke="black" stroke-width="12" mask="url(#path-3-outside-1_31_388)"/>
<path d="M842.744 563.331H816.513V446.501H836.514C850.941 446.501 861.816 449.227 869.139 454.679C876.462 460.02 880.123 467.586 880.123 477.378C880.123 488.504 875.533 496.682 866.352 501.912C879.686 507.03 886.353 516.655 886.353 530.786C886.353 540.8 882.746 548.755 875.533 554.652C868.319 560.438 857.39 563.331 842.744 563.331ZM842.744 558.324C847.881 558.324 852.581 557.935 856.843 557.156C861.106 556.266 865.15 554.875 868.975 552.983C872.91 550.98 875.97 548.088 878.156 544.304C880.342 540.521 881.435 536.015 881.435 530.786C881.435 518.88 875.806 510.813 864.549 506.585L854.712 502.913L863.893 497.572C871.434 493.344 875.205 486.613 875.205 477.378C875.205 460.131 862.308 451.508 836.514 451.508H821.431V558.324H842.744Z" stroke="black" stroke-width="12" mask="url(#path-3-outside-1_31_388)"/>
<mask id="path-4-outside-2_31_388" maskUnits="userSpaceOnUse" x="108" y="418" width="778" height="144" fill="black">
<rect fill="white" x="108" y="418" width="778" height="144"/>
<path d="M128.099 548.492H192.693V448.519L155.806 528.965L118.918 448.352V553.499L114 553.332V436.502H118.918L155.806 517.115L192.693 436.669L197.611 436.502V553.499L128.099 553.332V548.492Z"/>
<path d="M288.929 492.414H240.238L290.404 441.676H234.991V548.492H298.601V553.499H230.073V436.669H302.372L252.205 487.407H288.929V492.414Z"/>
<path d="M395.684 532.136C392.733 539.479 388.58 545.154 383.224 549.16C377.869 553.165 369.836 555.168 359.125 555.168C345.681 555.168 335.954 550.996 329.943 542.651C323.932 534.194 320.926 521.065 320.926 503.262V486.906C320.926 469.103 323.932 456.029 329.943 447.684C335.954 439.228 345.681 435 359.125 435C369.836 435 377.869 437.003 383.224 441.008C388.58 445.014 392.733 450.689 395.684 458.032L391.258 460.202C388.744 453.748 385.192 448.797 380.601 445.348C376.011 441.787 368.852 440.007 359.125 440.007C353.769 440.007 349.179 440.73 345.353 442.177C341.528 443.512 338.085 445.849 335.025 449.187C331.965 452.525 329.67 457.365 328.139 463.707C326.609 469.938 325.844 477.671 325.844 486.906V503.262C325.844 512.497 326.609 520.286 328.139 526.628C329.67 532.859 331.965 537.644 335.025 540.982C338.085 544.32 341.528 546.712 345.353 548.158C349.179 549.493 353.769 550.161 359.125 550.161C368.852 550.161 376.011 548.436 380.601 544.987C385.192 541.427 388.744 536.42 391.258 529.966L395.684 532.136Z"/>
<path d="M423.704 548.492H484.035L449.279 451.189L412.72 553.499H407.474L449.279 436.502L491.085 553.499H423.704V548.492Z"/>
<path d="M550.908 497.421L548.448 493.081L557.629 487.74C565.171 483.512 568.941 476.781 568.941 467.546C568.941 450.299 556.044 441.676 530.251 441.676H515.168V553.499H510.25V436.669H530.251C544.678 436.669 555.553 439.395 562.875 444.847C570.198 450.188 573.86 457.754 573.86 467.546C573.86 478.672 569.269 486.85 560.088 492.08L550.908 497.421Z"/>
<path d="M593.265 543.819H604.085V553.499H593.265V543.819Z"/>
<path d="M701.735 548.492V553.499H633.207V436.669H638.125V548.492H701.735Z"/>
<path d="M723.413 548.492H783.744L748.988 451.189L712.429 553.499H707.183L748.988 436.502L790.794 553.499H723.413V548.492Z"/>
<path d="M836.189 553.499H809.958V436.669H829.96C844.387 436.669 855.261 439.395 862.584 444.847C869.907 450.188 873.568 457.754 873.568 467.546C873.568 478.672 868.978 486.85 859.797 492.08C873.131 497.198 879.798 506.823 879.798 520.954C879.798 530.968 876.192 538.923 868.978 544.82C861.765 550.606 850.835 553.499 836.189 553.499ZM836.189 548.492C841.326 548.492 846.026 548.103 850.289 547.324C854.551 546.434 858.595 545.043 862.42 543.151C866.355 541.148 869.415 538.256 871.601 534.472C873.787 530.689 874.88 526.183 874.88 520.954C874.88 509.048 869.251 500.981 857.994 496.753L848.157 493.081L857.338 487.74C864.879 483.512 868.65 476.781 868.65 467.546C868.65 450.299 855.753 441.676 829.96 441.676H814.877V548.492H836.189Z"/>
</mask>
<path d="M128.099 548.492H192.693V448.519L155.806 528.965L118.918 448.352V553.499L114 553.332V436.502H118.918L155.806 517.115L192.693 436.669L197.611 436.502V553.499L128.099 553.332V548.492Z" fill="#3498DB"/>
<path d="M288.929 492.414H240.238L290.404 441.676H234.991V548.492H298.601V553.499H230.073V436.669H302.372L252.205 487.407H288.929V492.414Z" fill="#3498DB"/>
<path d="M395.684 532.136C392.733 539.479 388.58 545.154 383.224 549.16C377.869 553.165 369.836 555.168 359.125 555.168C345.681 555.168 335.954 550.996 329.943 542.651C323.932 534.194 320.926 521.065 320.926 503.262V486.906C320.926 469.103 323.932 456.029 329.943 447.684C335.954 439.228 345.681 435 359.125 435C369.836 435 377.869 437.003 383.224 441.008C388.58 445.014 392.733 450.689 395.684 458.032L391.258 460.202C388.744 453.748 385.192 448.797 380.601 445.348C376.011 441.787 368.852 440.007 359.125 440.007C353.769 440.007 349.179 440.73 345.353 442.177C341.528 443.512 338.085 445.849 335.025 449.187C331.965 452.525 329.67 457.365 328.139 463.707C326.609 469.938 325.844 477.671 325.844 486.906V503.262C325.844 512.497 326.609 520.286 328.139 526.628C329.67 532.859 331.965 537.644 335.025 540.982C338.085 544.32 341.528 546.712 345.353 548.158C349.179 549.493 353.769 550.161 359.125 550.161C368.852 550.161 376.011 548.436 380.601 544.987C385.192 541.427 388.744 536.42 391.258 529.966L395.684 532.136Z" fill="#3498DB"/>
<path d="M423.704 548.492H484.035L449.279 451.189L412.72 553.499H407.474L449.279 436.502L491.085 553.499H423.704V548.492Z" fill="#3498DB"/>
<path d="M550.908 497.421L548.448 493.081L557.629 487.74C565.171 483.512 568.941 476.781 568.941 467.546C568.941 450.299 556.044 441.676 530.251 441.676H515.168V553.499H510.25V436.669H530.251C544.678 436.669 555.553 439.395 562.875 444.847C570.198 450.188 573.86 457.754 573.86 467.546C573.86 478.672 569.269 486.85 560.088 492.08L550.908 497.421Z" fill="#3498DB"/>
<path d="M593.265 543.819H604.085V553.499H593.265V543.819Z" fill="#3498DB"/>
<path d="M701.735 548.492V553.499H633.207V436.669H638.125V548.492H701.735Z" fill="#3498DB"/>
<path d="M723.413 548.492H783.744L748.988 451.189L712.429 553.499H707.183L748.988 436.502L790.794 553.499H723.413V548.492Z" fill="#3498DB"/>
<path d="M836.189 553.499H809.958V436.669H829.96C844.387 436.669 855.261 439.395 862.584 444.847C869.907 450.188 873.568 457.754 873.568 467.546C873.568 478.672 868.978 486.85 859.797 492.08C873.131 497.198 879.798 506.823 879.798 520.954C879.798 530.968 876.192 538.923 868.978 544.82C861.765 550.606 850.835 553.499 836.189 553.499ZM836.189 548.492C841.326 548.492 846.026 548.103 850.289 547.324C854.551 546.434 858.595 545.043 862.42 543.151C866.355 541.148 869.415 538.256 871.601 534.472C873.787 530.689 874.88 526.183 874.88 520.954C874.88 509.048 869.251 500.981 857.994 496.753L848.157 493.081L857.338 487.74C864.879 483.512 868.65 476.781 868.65 467.546C868.65 450.299 855.753 441.676 829.96 441.676H814.877V548.492H836.189Z" fill="#3498DB"/>
<path d="M128.099 548.492H192.693V448.519L155.806 528.965L118.918 448.352V553.499L114 553.332V436.502H118.918L155.806 517.115L192.693 436.669L197.611 436.502V553.499L128.099 553.332V548.492Z" stroke="#3498DB" stroke-width="12" mask="url(#path-4-outside-2_31_388)"/>
<path d="M288.929 492.414H240.238L290.404 441.676H234.991V548.492H298.601V553.499H230.073V436.669H302.372L252.205 487.407H288.929V492.414Z" stroke="#3498DB" stroke-width="12" mask="url(#path-4-outside-2_31_388)"/>
<path d="M395.684 532.136C392.733 539.479 388.58 545.154 383.224 549.16C377.869 553.165 369.836 555.168 359.125 555.168C345.681 555.168 335.954 550.996 329.943 542.651C323.932 534.194 320.926 521.065 320.926 503.262V486.906C320.926 469.103 323.932 456.029 329.943 447.684C335.954 439.228 345.681 435 359.125 435C369.836 435 377.869 437.003 383.224 441.008C388.58 445.014 392.733 450.689 395.684 458.032L391.258 460.202C388.744 453.748 385.192 448.797 380.601 445.348C376.011 441.787 368.852 440.007 359.125 440.007C353.769 440.007 349.179 440.73 345.353 442.177C341.528 443.512 338.085 445.849 335.025 449.187C331.965 452.525 329.67 457.365 328.139 463.707C326.609 469.938 325.844 477.671 325.844 486.906V503.262C325.844 512.497 326.609 520.286 328.139 526.628C329.67 532.859 331.965 537.644 335.025 540.982C338.085 544.32 341.528 546.712 345.353 548.158C349.179 549.493 353.769 550.161 359.125 550.161C368.852 550.161 376.011 548.436 380.601 544.987C385.192 541.427 388.744 536.42 391.258 529.966L395.684 532.136Z" stroke="#3498DB" stroke-width="12" mask="url(#path-4-outside-2_31_388)"/>
<path d="M423.704 548.492H484.035L449.279 451.189L412.72 553.499H407.474L449.279 436.502L491.085 553.499H423.704V548.492Z" stroke="#3498DB" stroke-width="12" mask="url(#path-4-outside-2_31_388)"/>
<path d="M550.908 497.421L548.448 493.081L557.629 487.74C565.171 483.512 568.941 476.781 568.941 467.546C568.941 450.299 556.044 441.676 530.251 441.676H515.168V553.499H510.25V436.669H530.251C544.678 436.669 555.553 439.395 562.875 444.847C570.198 450.188 573.86 457.754 573.86 467.546C573.86 478.672 569.269 486.85 560.088 492.08L550.908 497.421Z" stroke="#3498DB" stroke-width="12" mask="url(#path-4-outside-2_31_388)"/>
<path d="M593.265 543.819H604.085V553.499H593.265V543.819Z" stroke="#3498DB" stroke-width="12" mask="url(#path-4-outside-2_31_388)"/>
<path d="M701.735 548.492V553.499H633.207V436.669H638.125V548.492H701.735Z" stroke="#3498DB" stroke-width="12" mask="url(#path-4-outside-2_31_388)"/>
<path d="M723.413 548.492H783.744L748.988 451.189L712.429 553.499H707.183L748.988 436.502L790.794 553.499H723.413V548.492Z" stroke="#3498DB" stroke-width="12" mask="url(#path-4-outside-2_31_388)"/>
<path d="M836.189 553.499H809.958V436.669H829.96C844.387 436.669 855.261 439.395 862.584 444.847C869.907 450.188 873.568 457.754 873.568 467.546C873.568 478.672 868.978 486.85 859.797 492.08C873.131 497.198 879.798 506.823 879.798 520.954C879.798 530.968 876.192 538.923 868.978 544.82C861.765 550.606 850.835 553.499 836.189 553.499ZM836.189 548.492C841.326 548.492 846.026 548.103 850.289 547.324C854.551 546.434 858.595 545.043 862.42 543.151C866.355 541.148 869.415 538.256 871.601 534.472C873.787 530.689 874.88 526.183 874.88 520.954C874.88 509.048 869.251 500.981 857.994 496.753L848.157 493.081L857.338 487.74C864.879 483.512 868.65 476.781 868.65 467.546C868.65 450.299 855.753 441.676 829.96 441.676H814.877V548.492H836.189Z" stroke="#3498DB" stroke-width="12" mask="url(#path-4-outside-2_31_388)"/>
<path d="M779.446 709.693H771.941V687.129H764.436V709.693H749.377V717.247H741.872V732.257H749.377V739.812H764.436V769.881H771.941V739.812H779.446V732.257H787V717.247H779.446V709.693ZM764.436 724.752H756.882V717.247H764.436V724.752Z" fill="#158AD8"/>
<path d="M756.881 769.881H764.436V777.436H756.881V769.881Z" fill="#158AD8"/>
<path d="M756.881 679.624H764.436V687.129H756.881V679.624Z" fill="#158AD8"/>
<path d="M644.06 777.436H756.882V784.941H644.06V777.436Z" fill="#158AD8"/>
<path d="M726.812 649.505H741.871V657.06H726.812V649.505Z" fill="#158AD8"/>
<path d="M711.753 657.06H726.812V664.565H711.753V657.06Z" fill="#158AD8"/>
<path d="M704.248 649.505H711.753V657.06H704.248V649.505Z" fill="#158AD8"/>
<path d="M689.188 642H704.247V649.505H689.188V642Z" fill="#158AD8"/>
<path d="M674.128 649.505H689.188V657.06H674.128V649.505Z" fill="#158AD8"/>
<path d="M659.07 657.06H674.129V664.565H659.07V657.06Z" fill="#158AD8"/>
<path d="M659.07 687.129H666.624V769.881H659.07V687.129Z" fill="#158AD8"/>
<path d="M756.882 679.624V672.07H749.377V657.06H741.872V672.07H711.753V664.565H704.248V672.07H659.07V664.565H651.565V672.07H644.06V679.624H756.882Z" fill="#158AD8"/>
<path d="M636.505 769.881H644.06V777.436H636.505V769.881Z" fill="#158AD8"/>
<path d="M636.505 679.624H644.06V687.129H636.505V679.624Z" fill="#158AD8"/>
<path d="M629 687.129H636.505V769.881H629V687.129Z" fill="#158AD8"/>
<path d="M363.495 321.366H355.99V328.871H363.495V336.376H371V313.812H363.495V321.366Z" fill="#158AD8"/>
<path d="M355.99 336.376H363.495V343.931H355.99V336.376Z" fill="#158AD8"/>
<path d="M355.99 306.307H363.495V313.812H355.99V306.307Z" fill="#158AD8"/>
<path d="M325.871 328.871H355.99V336.376H325.871V328.871Z" fill="#158AD8"/>
<path d="M325.871 298.753H355.99V306.307H325.871V298.753Z" fill="#158AD8"/>
<path d="M325.871 343.931H355.99V351.436H325.871V343.931Z" fill="#158AD8"/>
<path d="M318.366 306.307H325.871V313.812H318.366V306.307Z" fill="#158AD8"/>
<path d="M310.812 328.871H303.307V336.376H310.812V343.931H303.307V351.436H310.812V358.941H318.366V321.366H310.812V328.871Z" fill="#158AD8"/>
<path d="M303.307 358.941H310.812V366.495H303.307V358.941Z" fill="#158AD8"/>
<path d="M303.307 313.812H310.812V321.366H303.307V313.812Z" fill="#158AD8"/>
<path d="M265.683 366.495H303.307V374H265.683V366.495Z" fill="#158AD8"/>
<path d="M265.683 351.436H303.307V358.941H265.683V351.436Z" fill="#158AD8"/>
<path d="M265.683 336.376H303.307V343.931H265.683V336.376Z" fill="#158AD8"/>
<path d="M265.683 306.307H303.307V313.812H265.683V306.307Z" fill="#158AD8"/>
<path d="M265.683 291.247V298.752H280.742V283.742H273.188V291.247H265.683Z" fill="#158AD8"/>
<path d="M265.683 276.188H273.188V283.743H265.683V276.188Z" fill="#158AD8"/>
<path d="M258.178 358.941H265.683V366.495H258.178V358.941Z" fill="#158AD8"/>
<path d="M265.683 351.436V343.931H258.178V336.376H265.683V328.871H258.178V321.366H250.624V358.941H258.178V351.436H265.683Z" fill="#158AD8"/>
<path d="M258.178 313.812H265.683V321.366H258.178V313.812Z" fill="#158AD8"/>
<path d="M228.059 298.753H265.683V306.307H228.059V298.753Z" fill="#158AD8"/>
<path d="M355.99 261.129V216H310.812V223.554H318.366V231.059H325.871V238.564H318.366V246.119H303.307V238.564H295.802V231.059H288.247V223.554H273.188V231.059H265.683V238.564H258.178V246.119H250.624V253.624H243.119V261.129H258.178V253.624H265.683V246.119H273.188V238.564H288.247V246.119H295.802V253.624H303.307V261.129H318.366V253.624H325.871V246.119H340.931V253.624H348.436V261.129H355.99Z" fill="#158AD8"/>
<path d="M228.059 268.683H265.683V276.188H228.059V268.683Z" fill="#158AD8"/>
<path d="M228.059 351.436H243.118V358.941H228.059V351.436Z" fill="#158AD8"/>
<path d="M228.059 328.871H243.118V336.376H228.059V328.871Z" fill="#158AD8"/>
<path d="M228.059 313.812H243.118V321.366H228.059V313.812Z" fill="#158AD8"/>
<path d="M220.554 343.931H228.059V351.436H220.554V343.931Z" fill="#158AD8"/>
<path d="M220.554 276.188H228.059V283.743H220.554V276.188Z" fill="#158AD8"/>
<path d="M220.554 298.752H228.059V291.247H220.554V283.742H213V343.931H220.554V328.871H228.059V321.366H220.554V313.812H228.059V306.307H220.554V298.752Z" fill="#158AD8"/>
<path d="M629 359.436H787V366.941H629V359.436Z" fill="#158AD8"/>
<path d="M749.376 224V231.505H741.822V344.376H749.376V351.881H771.941V344.376H779.446V231.505H771.941V224H749.376Z" fill="#158AD8"/>
<path d="M704.248 329.317H711.753V336.822H704.248V329.317Z" fill="#158AD8"/>
<path d="M704.248 306.753H711.753V314.258H704.248V306.753Z" fill="#158AD8"/>
<path d="M704.248 284.188H711.753V291.693H704.248V284.188Z" fill="#158AD8"/>
<path d="M704.248 261.624H711.753V269.129H704.248V261.624Z" fill="#158AD8"/>
<path d="M711.753 261.624H719.258V276.634H711.753V284.188H719.258V299.248H711.753V306.753H719.258V321.812H711.753V329.317H719.258V344.376H726.812V254.069H719.258V246.564H696.693V254.069H711.753V261.624Z" fill="#158AD8"/>
<path d="M719.257 351.881V344.376H704.247V336.822H696.693V321.812H704.247V314.257H696.693V299.247H704.247V291.693H696.693V276.634H704.247V269.129H696.693V254.069H689.188V344.376H696.693V351.881H719.257Z" fill="#158AD8"/>
<path d="M666.624 299.247H674.129V344.376H666.624V299.247Z" fill="#158AD8"/>
<path d="M644.059 344.376H666.623V351.881H644.059V344.376Z" fill="#158AD8"/>
<path d="M644.059 291.693H666.623V299.247H644.059V291.693Z" fill="#158AD8"/>
<path d="M636.505 299.247H644.06V344.376H636.505V299.247Z" fill="#158AD8"/>
<path d="M363.446 766.376H220.505V751.317H213V773.881H220.505V781.436H363.446V773.881H371V751.317H363.446V766.376Z" fill="#158AD8"/>
<path d="M355.941 736.258H363.446V751.317H355.941V736.258Z" fill="#158AD8"/>
<path d="M303.257 691.129H310.812V698.634H303.257V691.129Z" fill="#158AD8"/>
<path d="M280.694 751.317H303.258V758.822H280.694V751.317Z" fill="#158AD8"/>
<path d="M288.248 691.129H295.753V698.634H288.248V691.129Z" fill="#158AD8"/>
<path d="M273.188 691.129H280.693V698.634H273.188V691.129Z" fill="#158AD8"/>
<path d="M235.564 646H348.436V653.505H235.564V646Z" fill="#158AD8"/>
<path d="M355.941 736.258V653.505H348.436V728.753H235.565V653.505H228.06V736.258H355.941Z" fill="#158AD8"/>
<path d="M220.505 736.258H228.059V751.317H220.505V736.258Z" fill="#158AD8"/>
</svg>
